<?xml version="1.0" encoding="UTF-8"?>
<svg xmlns="http://www.w3.org/2000/svg" version="1.1" viewBox="170 100 350 350">
<g>
<path d="m344.4 121.8c-86.465 0-156.8 70.336-156.8 156.8 0 86.465 70.336 156.8 156.8 156.8 86.465 0 156.8-70.336 156.8-156.8 0-86.465-70.336-156.8-156.8-156.8zm0 296.8c-77.336 0-140-62.664-140-140 0-77.336 62.664-140 140-140 77.336 0 140 62.664 140 140 0 77.336-62.664 140-140 140z"/>
<path d="m294.95 223.16c1.1758 2.8555 4.4805 4.1992 7.3359 2.9688 2.8555-1.1758 4.1992-4.4805 2.9688-7.3359-5.4883-12.992-18.145-21.391-32.258-21.391-19.32 0-35 15.734-35 35.055 0 4.7031 0.95312 9.2969 2.7422 13.609 0.89453 2.1289 2.9688 3.4141 5.1523 3.4141 0.72656 0 1.457-0.16797 2.1836-0.44922 2.8555-1.1758 4.1992-4.4805 2.9688-7.3359-1.2305-2.9102-1.8477-6.0469-1.8477-9.2969 0-13.16 10.695-23.855 23.801-23.855 9.5742 0.058593 18.199 5.7695 21.953 14.617z"/>
<path d="m379.4 168.39c-19.32 0-35 15.734-35 35 0 4.7031 0.95312 9.2969 2.7422 13.664 0.89453 2.1289 2.9688 3.4141 5.1523 3.4141 0.72656 0 1.457-0.16797 2.1836-0.44922 2.8555-1.2305 4.1992-4.4805 2.9688-7.3359-1.2305-2.9062-1.8438-6.043-1.8438-9.2344 0-13.16 10.695-23.801 23.801-23.801 9.5742 0 18.199 5.7109 21.953 14.559 1.1758 2.8555 4.4805 4.1992 7.3359 2.9688 2.8555-1.1758 4.1992-4.4805 2.9688-7.3359-5.4375-13.047-18.148-21.449-32.262-21.449z"/>
<path d="m391.38 250.6c-2.8008-1.2305-6.1055 0.11328-7.3359 2.9102-6.8867 16.129-21.281 28.953-38.414 34.328-12.77 3.9766-32.816 5.7109-56.113-8.8477-2.6328-1.625-6.1055-0.83984-7.7266 1.793-1.625 2.6328-0.83984 6.1055 1.793 7.7266 14.113 8.793 29.176 13.328 44.016 13.328 7.2812 0 14.449-1.0625 21.391-3.2461 20.215-6.3281 37.184-21.504 45.359-40.602 1.2344-2.9141-0.11328-6.2148-2.9688-7.3906z"/>
</g>
</svg>
