<?xml version="1.0" encoding="UTF-8"?>
<svg xmlns="http://www.w3.org/2000/svg" version="1.1" viewBox="0 0 210 100">
  <g transform="translate(0,-197)">
    <g transform="matrix(5.77374,0,0,5.77374,590.95798,-733.61085)">
      <path d="m -332.35547,619.69727 c -0.97513,2.9e-4 -1.97082,0.0719 -2.98047,0.22656 h -0.002 c -4.0386,0.61856 -8.28285,2.56079 -12.17188,6.54687 -3.32677,3.40978 -5.40378,8.11331 -6.6875,11.9668 -0.64185,1.92677 -1.08472,3.64092 -1.36718,4.87891 -0.14124,0.61897 -0.24083,1.12409 -0.3086,1.46875 -0.033,0.16722 -0.0556,0.29356 -0.0723,0.38086 l -4.38672,-0.0645 c -0.81858,-1.41749 -1.72591,-2.55259 -2.96875,-3.35156 -1.28356,-0.82515 -2.94699,-1.22757 -5.04102,-1.41016 -0.003,-2.6e-4 -0.005,2.3e-4 -0.008,0 a 0.75598109,0.75598109 0 0 0 -0.28125,-0.0801 0.75598109,0.75598109 0 0 0 -0.0293,0 l 0.002,0.002 c 0,0 -4.04336,-0.2182 -6.62305,2.36133 -0.86097,0.86098 -1.46936,1.8437 -1.90625,2.8125 h -4.375 a 0.75598109,0.75598109 0 0 0 -0.082,0 0.75794554,0.75794554 0 0 0 0.082,1.51367 h 3.82227 c -0.32858,1.17749 -0.3978,2.16846 -0.25586,2.92969 -0.0227,0.9256 0.39643,1.86589 1.1875,2.5625 0.40572,0.35716 0.95029,0.63803 1.58007,0.61914 0.62979,-0.0189 1.25991,-0.35259 1.79297,-0.92969 a 0.75598109,0.75598109 0 0 0 0.0586,-0.0664 c 0.30682,-0.41839 0.1143,-0.54923 0.31836,-1.0039 l 0.0293,0.58984 c -0.005,0.0408 -0.0207,0.0992 -0.0215,0.13281 -0.003,0.13455 0.004,0.25418 0.0293,0.39844 0.0502,0.28838 0.15889,0.64748 0.36132,1.01953 0.40492,0.74412 1.31653,1.53949 2.67969,1.51367 a 0.75598109,0.75598109 0 0 0 0.20703,-0.0391 c 0.77513,-0.23244 1.38793,-0.69531 1.74805,-1.29883 0.0663,-0.11111 0.0393,-0.25235 0.0898,-0.36914 0.0817,0.22602 0.1571,0.45842 0.31055,0.72461 0.41561,0.72087 1.27166,1.55575 2.50195,1.48242 0.66588,-0.034 1.24475,-0.28554 1.62305,-0.69336 0.37975,-0.40936 0.5417,-0.90835 0.61328,-1.37304 0.0147,-0.0949 -0.009,-0.13403 0,-0.22852 0.0909,0.0597 0.0729,0.16829 0.19922,0.21289 0.26619,0.13644 0.66388,0.36133 1.23242,0.36133 0.58379,0 1.25123,-0.39646 1.6836,-1.07617 0.31098,-0.36057 0.45607,-0.77385 0.51757,-1.22656 0.0678,-0.4989 0.065,-1.06132 0.0137,-1.66797 -0.0766,-0.90584 -0.26313,-1.91504 -0.52344,-2.90625 l 21.64453,0.32226 c -0.16962,4.73867 -0.16636,11.12121 0.74414,16.04297 0.35237,1.90469 0.97846,3.56566 2.13477,4.75391 1.1563,1.18821 2.83666,1.80699 4.98242,1.68359 2.43737,-0.14022 4.1819,-1.05017 5.29883,-2.35547 1.11693,-1.30529 1.61113,-2.94201 1.79492,-4.5039 0.36756,-3.12371 -0.47266,-6.08985 -0.47266,-6.08985 l -1.67969,-9.63476 20.24219,0.23437 c -0.26315,0.99836 -0.45217,2.01532 -0.5293,2.92774 -0.0513,0.60665 -0.0521,1.16907 0.0156,1.66797 0.0623,0.45838 0.21092,0.87668 0.53125,1.24023 0.43293,0.6686 1.08904,1.0625 1.66797,1.0625 0.56875,-4e-5 0.97407,-0.22527 1.24023,-0.36133 0.12223,-0.0435 0.10248,-0.14958 0.19141,-0.20703 0.009,0.0915 -0.014,0.13081 0,0.22266 0.0716,0.46469 0.23352,0.96368 0.61328,1.37304 0.3783,0.40781 0.96497,0.66097 1.63086,0.69336 1.23028,0.0733 2.08049,-0.7635 2.49609,-1.48437 0.15666,-0.27175 0.23424,-0.50879 0.31641,-0.73828 0.0519,0.12132 0.0213,0.2696 0.0898,0.38476 0.36012,0.60352 0.97292,1.06628 1.74805,1.29883 a 0.75598108,0.75598108 0 0 0 0.20117,0.0371 c 1.36316,0.0265 2.28063,-0.76761 2.68555,-1.51172 0.20247,-0.3719 0.30528,-0.73123 0.35547,-1.01953 0.0249,-0.144 0.0399,-0.264 0.0371,-0.39844 -9.4e-4,-0.0427 -0.014,-0.11171 -0.0234,-0.16992 l 0.0234,-0.56055 c 0.20564,0.46126 0.013,0.59325 0.32422,1.01758 a 0.75598108,0.75598108 0 0 0 0.0508,0.0586 c 0.53306,0.57698 1.16513,0.91274 1.79492,0.93164 0.62979,0.0189 1.17436,-0.26371 1.58008,-0.6211 0.79107,-0.6966 1.21104,-1.63494 1.1875,-2.56054 0.15167,-0.81336 0.0744,-1.88161 -0.31641,-3.16797 -0.0104,-0.0343 -0.0263,-0.071 -0.0371,-0.10547 l 4.26563,-0.006 a 0.756835,0.756835 0 0 0 0,-1.51367 l -4.88672,0.008 c -0.42243,-0.85372 -0.97494,-1.70542 -1.73438,-2.46484 -2.57969,-2.57968 -6.62109,-2.36915 -6.62109,-2.36914 a 0.75598108,0.75598108 0 0 0 -0.0293,0 v -0.002 c -0.007,4.9e-4 -0.009,0.008 -0.0156,0.008 a 0.75598108,0.75598108 0 0 0 -0.2793,0.0742 c -2.08982,0.18293 -3.75334,0.58611 -5.03516,1.41016 -1.23882,0.79637 -2.14452,1.92679 -2.96093,3.33789 l -4.66407,-0.0547 c -0.76983,-4.34821 -1.71144,-8.93913 -3.8457,-13.16015 -2.19186,-4.33493 -5.65677,-8.26275 -11.35352,-11.01368 a 0.75598109,0.75598109 0 0 0 -0.0371,-0.0156 c -2.30206,-0.98011 -5.03359,-1.62196 -7.95899,-1.62109 z m 0.0254,1.48632 c 2.69571,0.01 5.20792,0.61831 7.33594,1.52344 0.002,8.7e-4 0.006,-8.7e-4 0.008,0 5.38911,2.61082 8.56289,6.23427 10.62891,10.32031 1.97233,3.9008 2.90381,8.23467 3.66015,12.46289 l -14.88476,-0.17187 -0.81641,-4.6875 a 0.75669236,0.75669236 0 1 0 -1.49023,0.25781 l 0.86719,4.97071 a 0.75740193,0.75740193 0 0 0 0.11328,0.65039 l 1.79492,10.29492 a 0.75598109,0.75598109 0 0 0 0.0215,0.0664 c 0,0 0.74467,2.77053 0.42188,5.51368 -0.16139,1.37155 -0.58197,2.70427 -1.43164,3.69726 -0.84968,0.99296 -2.12955,1.71029 -4.2461,1.83203 -1.83013,0.10545 -2.97035,-0.36286 -3.8164,-1.23242 -0.84606,-0.8694 -1.39639,-2.23792 -1.71875,-3.98047 -1.55431,-8.40193 -0.35547,-22.12303 -0.35547,-22.12305 a 0.75598109,0.75598109 0 0 0 -0.77344,-0.83398 h -0.002 a 0.75598109,0.75598109 0 0 0 -0.73047,0.69336 c 0,0 -0.18154,2.02095 -0.31836,4.99023 l -16.34766,-0.24023 c 0.008,-0.0425 0.012,-0.0648 0.0215,-0.11328 0.0658,-0.33449 0.16565,-0.81714 0.30273,-1.41797 0.27417,-1.20166 0.69814,-2.87067 1.32032,-4.73828 1.24433,-3.73531 3.28407,-8.2566 6.34179,-11.39063 4.59666,-4.71134 9.6009,-6.35958 14.09375,-6.34375 z m -36.39648,20.58789 0.002,0.002 c 2.11603,0.15156 3.53136,0.55756 4.60547,1.24804 1.06017,0.68157 1.84208,1.68459 2.64258,3.13672 0.3648,1.16962 0.64253,2.45976 0.73047,3.5 0.045,0.53212 0.0377,0.99602 -0.008,1.32813 -0.0451,0.33222 -0.15531,0.50217 -0.125,0.47265 a 0.75598109,0.75598109 0 0 0 -0.125,0.16211 c -0.23025,0.39784 -0.30686,0.36133 -0.45117,0.36133 -0.1443,0 -0.39786,-0.0923 -0.63476,-0.21289 a 0.75598109,0.75598109 0 0 0 -0.10938,-0.0449 c 0.28271,0.0941 0.028,-0.0109 -0.12695,-0.32422 -0.15496,-0.31483 -0.32123,-0.76507 -0.46485,-1.21094 -0.2872,-0.89178 -0.48632,-1.76367 -0.48632,-1.76367 h -0.008 c -5e-5,-1.9e-4 0,-0.0234 0,-0.0234 a 0.75598109,0.75598109 0 0 0 -1.46875,0.35547 c 0,0 0.007,0.0215 0.008,0.0215 1e-5,7e-5 -3e-5,0.008 0,0.008 0.002,0.008 0.31886,1.28552 0.32421,2.12695 0.004,0.65065 0.13215,1.44172 0.0449,2.00782 -0.0436,0.28307 -0.13266,0.4688 -0.23047,0.57421 -0.0978,0.10545 -0.22476,0.18966 -0.59766,0.20703 a 0.75598109,0.75598109 0 0 0 -0.008,0.008 c -0.55528,0.034 -0.83385,-0.26952 -1.09961,-0.73047 -0.13289,-0.23055 -0.228,-0.48947 -0.28711,-0.67969 -0.0295,-0.0952 -0.0549,-0.17006 -0.0664,-0.2207 -0.003,-0.0151 -0.006,-0.0199 -0.008,-0.0312 a 0.75598109,0.75598109 0 0 0 0,-0.0137 v -0.008 a 0.75598109,0.75598109 0 0 0 -0.008,-0.0391 l -0.75977,-4.10351 a 0.75598109,0.75598109 0 0 0 -1.49218,0.0879 c 0,0 -0.13282,2.08336 -0.13282,3.39648 0,0.54682 -0.0905,0.95206 -0.25781,1.23242 -0.14612,0.24492 -0.40372,0.40696 -0.77539,0.54688 -0.70613,-0.0302 -1.03843,-0.30099 -1.24023,-0.67188 -0.10825,-0.1988 -0.1676,-0.41784 -0.19141,-0.55468 -0.006,-0.0302 -0.006,-0.0292 -0.008,-0.0508 a 0.75598109,0.75598109 0 0 0 0.0234,-0.1914 l -0.19922,-4.82813 v -0.0586 a 0.75685057,0.75685057 0 0 0 -1.51368,-0.008 c 0,0 -0.20263,2.7276 -1.35937,4.34765 -0.30724,0.31219 -0.53637,0.40765 -0.68555,0.41211 -0.15908,0.004 -0.33535,-0.063 -0.53906,-0.24219 -0.4074,-0.35867 -0.71876,-1.22261 -0.70898,-1.41015 a 0.75598109,0.75598109 0 0 0 -0.0137,-0.20703 c -0.0697,-0.3137 -0.0487,-1.3808 0.30078,-2.53125 0.3495,-1.15042 0.9959,-2.43535 2.02344,-3.46289 1.96049,-1.96048 5.46461,-1.92011 5.48438,-1.91993 z m 72.60937,0.47461 c 0.0197,-1.9e-4 3.5317,-0.0406 5.49219,1.91993 0.70119,0.70118 1.20951,1.52175 1.58008,2.33789 a 0.75665195,0.75665195 0 0 0 0.1289,0.27343 c 0.11925,0.28746 0.2224,0.57419 0.30664,0.85157 0.3495,1.15045 0.37243,2.2177 0.30274,2.53125 a 0.75598108,0.75598108 0 0 0 -0.0156,0.20703 c 0.01,0.18746 -0.30158,1.0514 -0.70898,1.41015 -0.20372,0.17953 -0.37998,0.2471 -0.53906,0.24219 -0.15099,-0.004 -0.37207,-0.0974 -0.68555,-0.41992 -1.15188,-1.62093 -1.35156,-4.33398 -1.35156,-4.33399 a 0.75664439,0.75664439 0 0 0 -1.51172,0 v 0.0586 l -0.20117,4.82812 a 0.75598108,0.75598108 0 0 0 0.0156,0.18555 c -0.002,0.0189 -6.2e-4,0.0223 -0.008,0.0586 -0.0238,0.13682 -0.0832,0.35397 -0.19141,0.55274 -0.20088,0.36926 -0.53361,0.63994 -1.23242,0.67187 -0.37126,-0.13984 -0.62934,-0.29422 -0.77539,-0.53906 -0.16728,-0.28044 -0.26562,-0.69341 -0.26562,-1.24023 0,-1.31312 -0.125,-3.39453 -0.125,-3.39453 a 0.75598108,0.75598108 0 0 0 -1.5,-0.0879 l -0.75977,4.10351 a 0.75598108,0.75598108 0 0 0 0,0.0371 c -3.9e-4,0.002 -0.006,0.0159 -0.008,0.0234 -5.4e-4,0.004 7.1e-4,0.008 0,0.0156 -0.001,0.008 -0.006,0.006 -0.008,0.0137 -0.0113,0.0507 -0.029,0.12742 -0.0586,0.22266 -0.0591,0.19011 -0.15422,0.44921 -0.28711,0.67969 -0.26577,0.46095 -0.54433,0.76531 -1.09961,0.73047 a 0.75598108,0.75598108 0 0 0 -0.0156,0 c -0.37293,-0.0189 -0.49987,-0.10978 -0.59766,-0.21485 -0.0978,-0.10545 -0.17908,-0.29327 -0.22265,-0.57617 -0.0872,-0.5661 0.0408,-1.35717 0.0449,-2.00781 0.005,-0.8414 0.31624,-2.11631 0.31836,-2.125 v -0.008 c 6e-5,-2.7e-4 0.006,-0.0234 0.006,-0.0234 a 0.75598108,0.75598108 0 0 0 -1.46875,-0.35352 c 0,0 5e-5,0.0234 0,0.0234 h -0.006 c 0,0 -0.20109,0.87189 -0.48828,1.76367 -0.14359,0.44587 -0.3099,0.89603 -0.46485,1.21094 -0.15496,0.31483 -0.40772,0.41859 -0.125,0.32422 a 0.75598108,0.75598108 0 0 0 -0.10351,0.0449 c -0.2369,0.12057 -0.49826,0.21289 -0.64258,0.21289 -0.1443,0 -0.21308,0.0382 -0.44336,-0.36133 a 0.75598108,0.75598108 0 0 0 -0.125,-0.16211 c 0.0302,0.0302 -0.0877,-0.14043 -0.13281,-0.47265 -0.0451,-0.33222 -0.045,-0.79601 0,-1.32813 0.0879,-1.04024 0.35787,-2.33038 0.72265,-3.5 0.8005,-1.45213 1.58241,-2.45515 2.64258,-3.13672 1.07411,-0.69048 2.49139,-1.09656 4.60742,-1.24804 z" transform="scale(0.26458333)" />
      <path d="m -88.812969,167.85813 c 0,0.15036 -0.03099,0.23571 -0.0981,0.32433 -0.05199,0.0687 -0.130388,0.15885 -0.202971,0.15885 -0.0726,0 -0.145104,-0.0413 -0.197101,-0.10993 -0.06709,-0.0886 -0.103967,-0.22292 -0.103967,-0.37326 0,-0.12381 0.06445,-0.22976 0.112169,-0.31526 0.05513,-0.0988 0.09977,-0.16793 0.188899,-0.16793 0.166276,0 0.301069,0.21634 0.301069,0.48319 z" />
      <path d="m -86.46097,167.7891 c 0,0.26686 -0.101384,0.45845 -0.26766,0.45845 -0.06682,0 -0.153319,-0.0571 -0.203264,-0.1162 -0.07434,-0.088 -0.131214,-0.18259 -0.131214,-0.3422 0,-0.11645 0.002,-0.25818 0.04474,-0.34159 0.05522,-0.10784 0.162581,-0.1416 0.256329,-0.1416 0.101664,0 0.19156,0.0809 0.246072,0.20471 0.03464,0.0787 0.055,0.17477 0.055,0.27848 z" />
    </g>
  </g>
</svg>
