<svg xmlns="http://www.w3.org/2000/svg" version="1.1" viewBox="0 0 210 100">
  <g transform="translate(0,-197)">
    <g transform="matrix(5.77374,0,0,5.77374,590.95798,-733.61085)">
      <path d="m -332.35547,619.69727 c -0.97513,2.9e-4 -1.97082,0.0719 -2.98047,0.22656 h -0.002 c -4.0386,0.61856 -8.28285,2.56079 -12.17188,6.54687 -3.32677,3.40978 -5.40378,8.11331 -6.6875,11.9668 -0.64185,1.92677 -1.08472,3.64092 -1.36718,4.87891 -0.14124,0.61897 -0.24083,1.12409 -0.3086,1.46875 -0.033,0.16722 -0.0556,0.29356 -0.0723,0.38086 l -4.38672,-0.0645 c -0.81858,-1.41749 -1.72591,-2.55259 -2.96875,-3.35156 -1.28356,-0.82515 -2.94699,-1.22757 -5.04102,-1.41016 -0.003,-2.6e-4 -0.005,2.3e-4 -0.008,0 a 0.75598109,0.75598109 0 0 0 -0.28125,-0.0801 0.75598109,0.75598109 0 0 0 -0.0293,0 l 0.002,0.002 c 0,0 -4.04336,-0.2182 -6.62305,2.36133 -0.86097,0.86098 -1.46936,1.8437 -1.90625,2.8125 h -4.375 a 0.75598109,0.75598109 0 0 0 -0.082,0 0.75794554,0.75794554 0 0 0 0.082,1.51367 h 3.82227 c -0.32858,1.17749 -0.3978,2.16846 -0.25586,2.92969 -0.0227,0.9256 0.39643,1.86589 1.1875,2.5625 0.40572,0.35716 0.95029,0.63803 1.58007,0.61914 0.62979,-0.0189 1.25991,-0.35259 1.79297,-0.92969 a 0.75598109,0.75598109 0 0 0 0.0586,-0.0664 c 0.30682,-0.41839 0.1143,-0.54923 0.31836,-1.0039 l 0.0293,0.58984 c -0.005,0.0408 -0.0207,0.0992 -0.0215,0.13281 -0.003,0.13455 0.004,0.25418 0.0293,0.39844 0.0502,0.28838 0.15889,0.64748 0.36132,1.01953 0.40492,0.74412 1.31653,1.53949 2.67969,1.51367 a 0.75598109,0.75598109 0 0 0 0.20703,-0.0391 c 0.77513,-0.23244 1.38793,-0.69531 1.74805,-1.29883 0.0663,-0.11111 0.0393,-0.25235 0.0898,-0.36914 0.0817,0.22602 0.1571,0.45842 0.31055,0.72461 0.41561,0.72087 1.27166,1.55575 2.50195,1.48242 0.66588,-0.034 1.24475,-0.28554 1.62305,-0.69336 0.37975,-0.40936 0.5417,-0.90835 0.61328,-1.37304 0.0147,-0.0949 -0.009,-0.13403 0,-0.22852 0.0909,0.0597 0.0729,0.16829 0.19922,0.21289 0.26619,0.13644 0.66388,0.36133 1.23242,0.36133 0.58379,0 1.25123,-0.39646 1.6836,-1.07617 0.31098,-0.36057 0.45607,-0.77385 0.51757,-1.22656 0.0678,-0.4989 0.065,-1.06132 0.0137,-1.66797 -0.0766,-0.90584 -0.26313,-1.91504 -0.52344,-2.90625 l 21.64453,0.32226 c -0.16962,4.73867 -0.16636,11.12121 0.74414,16.04297 0.35237,1.90469 0.97846,3.56566 2.13477,4.75391 1.1563,1.18821 2.83666,1.80699 4.98242,1.68359 2.43737,-0.14022 4.1819,-1.05017 5.29883,-2.35547 1.11693,-1.30529 1.61113,-2.94201 1.79492,-4.5039 0.36756,-3.12371 -0.47266,-6.08985 -0.47266,-6.08985 l -1.67969,-9.63476 20.24219,0.23437 c -0.26315,0.99836 -0.45217,2.01532 -0.5293,2.92774 -0.0513,0.60665 -0.0521,1.16907 0.0156,1.66797 0.0623,0.45838 0.21092,0.87668 0.53125,1.24023 0.43293,0.6686 1.08904,1.0625 1.66797,1.0625 0.56875,-4e-5 0.97407,-0.22527 1.24023,-0.36133 0.12223,-0.0435 0.10248,-0.14958 0.19141,-0.20703 0.009,0.0915 -0.014,0.13081 0,0.22266 0.0716,0.46469 0.23352,0.96368 0.61328,1.37304 0.3783,0.40781 0.96497,0.66097 1.63086,0.69336 1.23028,0.0733 2.08049,-0.7635 2.49609,-1.48437 0.15666,-0.27175 0.23424,-0.50879 0.31641,-0.73828 0.0519,0.12132 0.0213,0.2696 0.0898,0.38476 0.36012,0.60352 0.97292,1.06628 1.74805,1.29883 a 0.75598108,0.75598108 0 0 0 0.20117,0.0371 c 1.36316,0.0265 2.28063,-0.76761 2.68555,-1.51172 0.20247,-0.3719 0.30528,-0.73123 0.35547,-1.01953 0.0249,-0.144 0.0399,-0.264 0.0371,-0.39844 -9.4e-4,-0.0427 -0.014,-0.11171 -0.0234,-0.16992 l 0.0234,-0.56055 c 0.20564,0.46126 0.013,0.59325 0.32422,1.01758 a 0.75598108,0.75598108 0 0 0 0.0508,0.0586 c 0.53306,0.57698 1.16513,0.91274 1.79492,0.93164 0.62979,0.0189 1.17436,-0.26371 1.58008,-0.6211 0.79107,-0.6966 1.21104,-1.63494 1.1875,-2.56054 0.15167,-0.81336 0.0744,-1.88161 -0.31641,-3.16797 -0.0104,-0.0343 -0.0263,-0.071 -0.0371,-0.10547 l 4.26563,-0.006 a 0.756835,0.756835 0 0 0 0,-1.51367 l -4.88672,0.008 c -0.42243,-0.85372 -0.97494,-1.70542 -1.73438,-2.46484 -2.57969,-2.57968 -6.62109,-2.36915 -6.62109,-2.36914 a 0.75598108,0.75598108 0 0 0 -0.0293,0 v -0.002 c -0.007,4.9e-4 -0.009,0.008 -0.0156,0.008 a 0.75598108,0.75598108 0 0 0 -0.2793,0.0742 c -2.08982,0.18293 -3.75334,0.58611 -5.03516,1.41016 -1.23882,0.79637 -2.14452,1.92679 -2.96093,3.33789 l -4.66407,-0.0547 c -0.76983,-4.34821 -1.71144,-8.93913 -3.8457,-13.16015 -2.19186,-4.33493 -5.65677,-8.26275 -11.35352,-11.01368 a 0.75598109,0.75598109 0 0 0 -0.0371,-0.0156 c -2.30206,-0.98011 -5.03359,-1.62196 -7.95899,-1.62109 z m 0.0254,1.48632 c 2.69571,0.01 5.20792,0.61831 7.33594,1.52344 0.002,8.7e-4 0.006,-8.7e-4 0.008,0 5.38911,2.61082 8.56289,6.23427 10.62891,10.32031 1.97233,3.9008 2.90381,8.23467 3.66015,12.46289 l -14.88476,-0.17187 -0.81641,-4.6875 a 0.75669236,0.75669236 0 1 0 -1.49023,0.25781 l 0.86719,4.97071 a 0.75740193,0.75740193 0 0 0 0.11328,0.65039 l 1.79492,10.29492 a 0.75598109,0.75598109 0 0 0 0.0215,0.0664 c 0,0 0.74467,2.77053 0.42188,5.51368 -0.16139,1.37155 -0.58197,2.70427 -1.43164,3.69726 -0.84968,0.99296 -2.12955,1.71029 -4.2461,1.83203 -1.83013,0.10545 -2.97035,-0.36286 -3.8164,-1.23242 -0.84606,-0.8694 -1.39639,-2.23792 -1.71875,-3.98047 -1.55431,-8.40193 -0.35547,-22.12303 -0.35547,-22.12305 a 0.75598109,0.75598109 0 0 0 -0.77344,-0.83398 h -0.002 a 0.75598109,0.75598109 0 0 0 -0.73047,0.69336 c 0,0 -0.18154,2.02095 -0.31836,4.99023 l -16.34766,-0.24023 c 0.008,-0.0425 0.012,-0.0648 0.0215,-0.11328 0.0658,-0.33449 0.16565,-0.81714 0.30273,-1.41797 0.27417,-1.20166 0.69814,-2.87067 1.32032,-4.73828 1.24433,-3.73531 3.28407,-8.2566 6.34179,-11.39063 4.59666,-4.71134 9.6009,-6.35958 14.09375,-6.34375 z m -36.39648,20.58789 0.002,0.002 c 2.11603,0.15156 3.53136,0.55756 4.60547,1.24804 1.06017,0.68157 1.84208,1.68459 2.64258,3.13672 0.3648,1.16962 0.64253,2.45976 0.73047,3.5 0.045,0.53212 0.0377,0.99602 -0.008,1.32813 -0.0451,0.33222 -0.15531,0.50217 -0.125,0.47265 a 0.75598109,0.75598109 0 0 0 -0.125,0.16211 c -0.23025,0.39784 -0.30686,0.36133 -0.45117,0.36133 -0.1443,0 -0.39786,-0.0923 -0.63476,-0.21289 a 0.75598109,0.75598109 0 0 0 -0.10938,-0.0449 c 0.28271,0.0941 0.028,-0.0109 -0.12695,-0.32422 -0.15496,-0.31483 -0.32123,-0.76507 -0.46485,-1.21094 -0.2872,-0.89178 -0.48632,-1.76367 -0.48632,-1.76367 h -0.008 c -5e-5,-1.9e-4 0,-0.0234 0,-0.0234 a 0.75598109,0.75598109 0 0 0 -1.46875,0.35547 c 0,0 0.007,0.0215 0.008,0.0215 1e-5,7e-5 -3e-5,0.008 0,0.008 0.002,0.008 0.31886,1.28552 0.32421,2.12695 0.004,0.65065 0.13215,1.44172 0.0449,2.00782 -0.0436,0.28307 -0.13266,0.4688 -0.23047,0.57421 -0.0978,0.10545 -0.22476,0.18966 -0.59766,0.20703 a 0.75598109,0.75598109 0 0 0 -0.008,0.008 c -0.55528,0.034 -0.83385,-0.26952 -1.09961,-0.73047 -0.13289,-0.23055 -0.228,-0.48947 -0.28711,-0.67969 -0.0295,-0.0952 -0.0549,-0.17006 -0.0664,-0.2207 -0.003,-0.0151 -0.006,-0.0199 -0.008,-0.0312 a 0.75598109,0.75598109 0 0 0 0,-0.0137 v -0.008 a 0.75598109,0.75598109 0 0 0 -0.008,-0.0391 l -0.75977,-4.10351 a 0.75598109,0.75598109 0 0 0 -1.49218,0.0879 c 0,0 -0.13282,2.08336 -0.13282,3.39648 0,0.54682 -0.0905,0.95206 -0.25781,1.23242 -0.14612,0.24492 -0.40372,0.40696 -0.77539,0.54688 -0.70613,-0.0302 -1.03843,-0.30099 -1.24023,-0.67188 -0.10825,-0.1988 -0.1676,-0.41784 -0.19141,-0.55468 -0.006,-0.0302 -0.006,-0.0292 -0.008,-0.0508 a 0.75598109,0.75598109 0 0 0 0.0234,-0.1914 l -0.19922,-4.82813 v -0.0586 a 0.75685057,0.75685057 0 0 0 -1.51368,-0.008 c 0,0 -0.20263,2.7276 -1.35937,4.34765 -0.30724,0.31219 -0.53637,0.40765 -0.68555,0.41211 -0.15908,0.004 -0.33535,-0.063 -0.53906,-0.24219 -0.4074,-0.35867 -0.71876,-1.22261 -0.70898,-1.41015 a 0.75598109,0.75598109 0 0 0 -0.0137,-0.20703 c -0.0697,-0.3137 -0.0487,-1.3808 0.30078,-2.53125 0.3495,-1.15042 0.9959,-2.43535 2.02344,-3.46289 1.96049,-1.96048 5.46461,-1.92011 5.48438,-1.91993 z m 72.60937,0.47461 c 0.0197,-1.9e-4 3.5317,-0.0406 5.49219,1.91993 0.70119,0.70118 1.20951,1.52175 1.58008,2.33789 a 0.75665195,0.75665195 0 0 0 0.1289,0.27343 c 0.11925,0.28746 0.2224,0.57419 0.30664,0.85157 0.3495,1.15045 0.37243,2.2177 0.30274,2.53125 a 0.75598108,0.75598108 0 0 0 -0.0156,0.20703 c 0.01,0.18746 -0.30158,1.0514 -0.70898,1.41015 -0.20372,0.17953 -0.37998,0.2471 -0.53906,0.24219 -0.15099,-0.004 -0.37207,-0.0974 -0.68555,-0.41992 -1.15188,-1.62093 -1.35156,-4.33398 -1.35156,-4.33399 a 0.75664439,0.75664439 0 0 0 -1.51172,0 v 0.0586 l -0.20117,4.82812 a 0.75598108,0.75598108 0 0 0 0.0156,0.18555 c -0.002,0.0189 -6.2e-4,0.0223 -0.008,0.0586 -0.0238,0.13682 -0.0832,0.35397 -0.19141,0.55274 -0.20088,0.36926 -0.53361,0.63994 -1.23242,0.67187 -0.37126,-0.13984 -0.62934,-0.29422 -0.77539,-0.53906 -0.16728,-0.28044 -0.26562,-0.69341 -0.26562,-1.24023 0,-1.31312 -0.125,-3.39453 -0.125,-3.39453 a 0.75598108,0.75598108 0 0 0 -1.5,-0.0879 l -0.75977,4.10351 a 0.75598108,0.75598108 0 0 0 0,0.0371 c -3.9e-4,0.002 -0.006,0.0159 -0.008,0.0234 -5.4e-4,0.004 7.1e-4,0.008 0,0.0156 -0.001,0.008 -0.006,0.006 -0.008,0.0137 -0.0113,0.0507 -0.029,0.12742 -0.0586,0.22266 -0.0591,0.19011 -0.15422,0.44921 -0.28711,0.67969 -0.26577,0.46095 -0.54433,0.76531 -1.09961,0.73047 a 0.75598108,0.75598108 0 0 0 -0.0156,0 c -0.37293,-0.0189 -0.49987,-0.10978 -0.59766,-0.21485 -0.0978,-0.10545 -0.17908,-0.29327 -0.22265,-0.57617 -0.0872,-0.5661 0.0408,-1.35717 0.0449,-2.00781 0.005,-0.8414 0.31624,-2.11631 0.31836,-2.125 v -0.008 c 6e-5,-2.7e-4 0.006,-0.0234 0.006,-0.0234 a 0.75598108,0.75598108 0 0 0 -1.46875,-0.35352 c 0,0 5e-5,0.0234 0,0.0234 h -0.006 c 0,0 -0.20109,0.87189 -0.48828,1.76367 -0.14359,0.44587 -0.3099,0.89603 -0.46485,1.21094 -0.15496,0.31483 -0.40772,0.41859 -0.125,0.32422 a 0.75598108,0.75598108 0 0 0 -0.10351,0.0449 c -0.2369,0.12057 -0.49826,0.21289 -0.64258,0.21289 -0.1443,0 -0.21308,0.0382 -0.44336,-0.36133 a 0.75598108,0.75598108 0 0 0 -0.125,-0.16211 c 0.0302,0.0302 -0.0877,-0.14043 -0.13281,-0.47265 -0.0451,-0.33222 -0.045,-0.79601 0,-1.32813 0.0879,-1.04024 0.35787,-2.33038 0.72265,-3.5 0.8005,-1.45213 1.58241,-2.45515 2.64258,-3.13672 1.07411,-0.69048 2.49139,-1.09656 4.60742,-1.24804 z" transform="scale(0.26458333)" />
      <path d="m -88.812969,167.85813 c 0,0.15036 -0.03099,0.23571 -0.0981,0.32433 -0.05199,0.0687 -0.130388,0.15885 -0.202971,0.15885 -0.0726,0 -0.145104,-0.0413 -0.197101,-0.10993 -0.06709,-0.0886 -0.103967,-0.22292 -0.103967,-0.37326 0,-0.12381 0.06445,-0.22976 0.112169,-0.31526 0.05513,-0.0988 0.09977,-0.16793 0.188899,-0.16793 0.166276,0 0.301069,0.21634 0.301069,0.48319 z" />
      <path d="m -86.46097,167.7891 c 0,0.26686 -0.101384,0.45845 -0.26766,0.45845 -0.06682,0 -0.153319,-0.0571 -0.203264,-0.1162 -0.07434,-0.088 -0.131214,-0.18259 -0.131214,-0.3422 0,-0.11645 0.002,-0.25818 0.04474,-0.34159 0.05522,-0.10784 0.162581,-0.1416 0.256329,-0.1416 0.101664,0 0.19156,0.0809 0.246072,0.20471 0.03464,0.0787 0.055,0.17477 0.055,0.27848 z" />
    </g>
    <g transform="matrix(5.77374,0,0,5.77374,544.50117,-705.54591)">
      <path d="m -260.61133,535.82617 c -2.4505,1.30266 -2.10216,1.55125 -3.09961,2.44336 -0.0112,0.01 -0.0169,0.0126 -0.0273,0.0215 l -0.0469,-0.0371 a 0.21411258,0.21411258 0 0 0 -0.0391,-0.0254 c -0.11559,-0.0577 -0.20655,-0.0476 -0.32031,-0.0391 h -0.002 c -0.15085,0.008 -0.29807,0.0666 -0.44922,0.16211 -0.11095,0.07 -0.18754,0.18344 -0.22657,0.30664 -0.0203,0.0631 -0.0236,0.13683 -0.0312,0.20703 -0.034,-0.0251 -0.0636,-0.0568 -0.10156,-0.0723 -0.0991,-0.0463 -0.20362,-0.0492 -0.29883,-0.0332 -0.10296,0.0132 -0.20816,0.0465 -0.32421,0.0977 -0.1194,0.0525 -0.25599,0.12597 -0.41211,0.22461 -0.15818,0.0998 -0.30854,0.20535 -0.45313,0.31445 -0.14647,0.11017 -0.29522,0.23349 -0.44531,0.36719 -0.14815,0.12816 -0.30064,0.26931 -0.45703,0.42383 -0.15633,0.15442 -0.32162,0.32564 -0.49805,0.51367 a 0.21411258,0.21411258 0 0 0 -0.0137,0.0156 c -0.0149,0.0192 -0.053,0.0619 -0.10742,0.11523 a 0.21411258,0.21411258 0 0 0 -0.002,0.002 c -0.053,0.0542 -0.11447,0.11248 -0.18359,0.17579 a 0.21411258,0.21411258 0 0 0 -0.004,0.004 c -0.0664,0.0641 -0.13345,0.12844 -0.19922,0.18945 -0.0115,0.0101 -0.0166,0.0144 -0.0273,0.0234 l -0.0469,-0.0391 a 0.21411258,0.21411258 0 0 0 -0.0391,-0.0254 c -0.11042,-0.0551 -0.20358,-0.0498 -0.32031,-0.041 h -0.002 c -0.15281,0.008 -0.29791,0.0699 -0.44727,0.16407 -0.10787,0.0679 -0.18908,0.17939 -0.22851,0.30273 -0.0345,0.10662 -0.0486,0.22021 -0.0488,0.33984 -1e-5,6.3e-4 10e-6,0.001 0,0.002 0,6.7e-4 0,0.001 0,0.002 -0.002,0.11299 0.005,0.23122 0.0215,0.35352 a 0.21411258,0.21411258 0 0 0 0.002,0.006 c 0.0192,0.11228 0.0396,0.22082 0.0605,0.32421 a 0.21411258,0.21411258 0 0 0 0,0.004 c 0.0387,0.17134 0.0835,0.34031 0.13477,0.50781 0.0509,0.16691 0.11641,0.36142 0.19726,0.58399 0.0783,0.21855 0.17525,0.47788 0.29102,0.78125 a 0.21411258,0.21411258 0 0 0 0,0.002 c 0.1161,0.29644 0.25731,0.66473 0.42187,1.10352 0.11584,0.30882 0.219,0.63469 0.32227,0.96093 -0.0269,0.0231 -0.0555,0.0443 -0.0781,0.0723 -5.7e-4,6.6e-4 -0.001,0.001 -0.002,0.002 -0.001,0.001 -0.003,0.002 -0.004,0.004 -0.0278,0.0329 -0.0546,0.0676 -0.0859,0.10547 a 0.21411258,0.21411258 0 0 0 -0.01,0.0117 c -0.18797,0.26203 -0.33736,0.46514 -0.44531,0.61328 -0.10784,0.14811 -0.19549,0.26955 -0.26172,0.36328 -0.0635,0.0864 -0.11559,0.16097 -0.1582,0.2207 a 0.21411258,0.21411258 0 0 0 -0.002,0.004 c -0.0402,0.0584 -0.0907,0.12929 -0.15039,0.21289 a 0.21411258,0.21411258 0 0 0 0,0.002 c -0.11198,0.1583 -0.23826,0.3309 -0.37695,0.51953 -0.13548,0.18054 -0.27632,0.35829 -0.42187,0.53321 -0.14673,0.1707 -0.29223,0.33075 -0.43555,0.47851 -0.1336,0.13264 -0.2577,0.22808 -0.36914,0.30078 -0.0476,-0.0622 -0.10687,-0.15955 -0.17188,-0.29883 -0.07,-0.1501 -0.13944,-0.30981 -0.20703,-0.48046 a 0.21411258,0.21411258 0 0 0 0,-0.002 l -0.13672,-0.34179 v -0.002 c -0.12792,-0.32243 -0.25069,-0.65784 -0.36523,-1.00586 -0.11544,-0.35159 -0.23006,-0.70338 -0.34375,-1.05273 v -0.002 c -0.11277,-0.35476 -0.2254,-0.70273 -0.33789,-1.04493 -0.11411,-0.34704 -0.23613,-0.67592 -0.36719,-0.98828 a 0.21411258,0.21411258 0 0 0 -0.004,-0.008 c -0.022,-0.047 -0.0459,-0.0955 -0.0723,-0.14258 v -0.002 c -0.0321,-0.0573 -0.0726,-0.11006 -0.11328,-0.16211 v -0.002 c -0.0599,-0.0764 -0.12827,-0.14661 -0.20508,-0.20899 -0.0813,-0.066 -0.1722,-0.11913 -0.26953,-0.15625 -0.1009,-0.0429 -0.20977,-0.0609 -0.31836,-0.0547 h -0.004 c -0.11893,0.007 -0.23552,0.0466 -0.33789,0.11132 -0.16911,0.10709 -0.29363,0.27231 -0.3457,0.46289 a 0.21411258,0.21411258 0 0 0 0,0.004 c -0.0478,0.18851 -0.0262,0.39059 0.0527,0.58203 a 0.21411258,0.21411258 0 0 0 0.0234,0.043 c 0.0878,0.12248 0.19638,0.32072 0.31445,0.58594 a 0.21411258,0.21411258 0 0 0 0,0.002 c 0.12208,0.26429 0.25185,0.57771 0.38477,0.94336 a 0.21411258,0.21411258 0 0 0 0,0.002 c 0.13675,0.36517 0.279,0.77053 0.42578,1.21094 0.14736,0.4422 0.30042,0.90147 0.45899,1.38281 l 0.28906,0.89258 c 0.0211,0.0725 0.0502,0.14562 0.0859,0.22266 0.0343,0.0755 0.0711,0.15007 0.10937,0.22461 0.0375,0.0747 0.0745,0.14869 0.11524,0.21875 a 0.21411258,0.21411258 0 0 0 0.004,0.006 c 0.0435,0.0693 0.0867,0.13033 0.12695,0.18164 0.087,0.11108 0.19156,0.20203 0.3125,0.27148 a 0.21411258,0.21411258 0 0 0 0.002,0 c 0.13334,0.0757 0.28838,0.10941 0.44531,0.0996 0.12727,-0.009 0.23186,-0.008 0.30273,-0.002 a 0.21411258,0.21411258 0 0 0 0.006,0 c 0.0989,0.006 0.19239,0.008 0.28321,0.002 a 0.21411258,0.21411258 0 0 0 0.006,0 c 0.0966,-0.009 0.1902,-0.0311 0.2832,-0.0606 a 0.21411258,0.21411258 0 0 0 0.002,0 c 0.11008,-0.0362 0.22742,-0.0952 0.36133,-0.17968 a 0.21411258,0.21411258 0 0 0 0.002,0 c 0.12302,-0.0778 0.24397,-0.18546 0.375,-0.32227 a 0.21411258,0.21411258 0 0 0 0.002,-0.002 c 0.12806,-0.13739 0.25875,-0.28672 0.39062,-0.44727 0.13096,-0.15965 0.26003,-0.32305 0.38672,-0.48828 0.12658,-0.16327 0.2397,-0.3086 0.34375,-0.44141 l 0.004,-0.004 c 0.0251,-0.0301 0.0622,-0.0758 0.11523,-0.14258 a 0.21411258,0.21411258 0 0 0 0.002,-0.004 c 0.0553,-0.073 0.11837,-0.1548 0.1875,-0.24414 0.0687,-0.0891 0.14364,-0.1836 0.22461,-0.28515 a 0.21411258,0.21411258 0 0 0 0.004,-0.004 c 0.0795,-0.10568 0.15355,-0.20873 0.22656,-0.30469 0.073,-0.096 0.14231,-0.18393 0.20508,-0.26562 l 0.002,-0.002 c 0.0453,-0.0571 0.0749,-0.0969 0.10743,-0.13868 0.0211,0.0583 0.0372,0.10968 0.0625,0.16992 0.049,0.11895 0.11462,0.22153 0.18359,0.32032 a 0.21411258,0.21411258 0 0 0 0.0391,0.0801 c 0.17485,0.22181 0.4165,0.35889 0.67774,0.35546 a 0.21411258,0.21411258 0 0 0 0.002,0 c 0.25219,-0.004 0.51016,-0.10138 0.7793,-0.27148 0.23679,-0.14953 0.48307,-0.33875 0.74023,-0.56641 0.25979,-0.22959 0.50672,-0.4897 0.74219,-0.77734 0.0929,-0.11404 0.19707,-0.24404 0.3125,-0.38867 a 0.21411258,0.21411258 0 0 0 0.002,-0.002 c 0.11476,-0.14962 0.22885,-0.30635 0.34375,-0.46874 a 0.21411258,0.21411258 0 0 0 0.004,-0.002 c 0.11278,-0.16571 0.22021,-0.33226 0.32226,-0.5 0.10429,-0.17139 0.19091,-0.33836 0.26172,-0.5 0.0699,-0.15984 0.11668,-0.31333 0.14063,-0.46289 0.0334,0.0836 0.0568,0.1686 0.0918,0.25195 0.0498,0.12094 0.11622,0.22663 0.1875,0.32813 8.3e-4,0.001 0.001,0.003 0.002,0.004 a 0.21411258,0.21411258 0 0 0 0.0352,0.0664 c 0.17428,0.22108 0.41457,0.3589 0.67578,0.35547 a 0.21411258,0.21411258 0 0 0 0.002,0 c 0.2522,-0.004 0.51017,-0.10138 0.77929,-0.27148 0.23679,-0.14952 0.48308,-0.33876 0.74024,-0.56641 0.25977,-0.22957 0.50671,-0.48966 0.74219,-0.77734 0.0929,-0.11406 0.19705,-0.24406 0.3125,-0.38868 a 0.21411258,0.21411258 0 0 0 0.002,-0.002 c 0.11472,-0.14959 0.22884,-0.30635 0.34375,-0.46875 a 0.21411258,0.21411258 0 0 0 0.004,-0.002 c 0.11278,-0.16571 0.22021,-0.33228 0.32226,-0.5 0.10428,-0.17139 0.19091,-0.33839 0.26172,-0.5 0.072,-0.16454 0.12138,-0.32281 0.14453,-0.47656 0.0246,-0.16394 0.006,-0.32797 -0.0723,-0.4668 -0.0499,-0.088 -0.1485,-0.15773 -0.25,-0.17774 -0.0724,-0.0185 -0.15227,-0.022 -0.22852,-0.004 -0.0686,0.0119 -0.13365,0.0307 -0.19531,0.0586 a 0.21411258,0.21411258 0 0 0 -0.002,0 c -0.0532,0.0243 -0.10035,0.0501 -0.14257,0.0762 a 0.21411258,0.21411258 0 0 0 -0.004,0.004 c -0.16879,0.11161 -0.31093,0.23989 -0.42188,0.38867 -0.10034,0.13147 -0.19375,0.27834 -0.2832,0.43555 -0.0851,0.14649 -0.17758,0.3038 -0.27344,0.47461 -0.0875,0.15556 -0.20641,0.32678 -0.35742,0.51172 -0.15853,0.19378 -0.32813,0.37598 -0.51172,0.54883 -0.18,0.17049 -0.34416,0.3001 -0.48437,0.38867 h 0.004 c -0.0117,0.007 -0.0274,0.0172 -0.043,0.0273 -0.005,-0.005 -0.002,-0.002 -0.0176,-0.0215 -0.0119,-0.0151 -0.0603,-0.0926 -0.11914,-0.20703 l -0.002,-0.006 c -0.0578,-0.12126 -0.11765,-0.25489 -0.17968,-0.4004 a 0.21411258,0.21411258 0 0 0 0,-0.002 c -0.0647,-0.14899 -0.12334,-0.29395 -0.17578,-0.43359 a 0.21411258,0.21411258 0 0 0 -0.002,0 c -0.0353,-0.092 -0.0467,-0.14222 -0.0645,-0.20117 0.0504,-0.0511 0.1088,-0.11147 0.14258,-0.14453 a 0.21411258,0.21411258 0 0 0 0.002,-0.002 c 0.0568,-0.0581 0.10854,-0.11064 0.15625,-0.16211 a 0.21411258,0.21411258 0 0 0 0.008,-0.008 c 0.0495,-0.0586 0.097,-0.12169 0.14453,-0.18555 l 0.002,-0.004 c 0.0512,-0.0661 0.12268,-0.15711 0.21289,-0.27735 a 0.21411258,0.21411258 0 0 0 0.002,-0.004 c 0.0868,-0.12079 0.2045,-0.27806 0.34961,-0.47071 a 0.21411258,0.21411258 0 0 0 0,-0.002 c 0.14391,-0.1945 0.33349,-0.44469 0.56445,-0.74805 0.0388,-0.0457 0.0978,-0.11839 0.1836,-0.21875 0.0861,-0.1002 0.17745,-0.20415 0.27148,-0.31445 v -0.002 c 0.0985,-0.11331 0.18911,-0.21882 0.26953,-0.31641 a 0.21411258,0.21411258 0 0 0 0.002,-0.002 c 0.0832,-0.10387 0.13752,-0.17556 0.17578,-0.23828 a 0.21411258,0.21411258 0 0 0 0,-0.002 c 0.0902,-0.15236 0.15276,-0.30839 0.17969,-0.46679 0.0324,-0.1775 -0.0122,-0.36699 -0.12305,-0.50977 -0.0695,-0.0915 -0.18256,-0.1427 -0.29102,-0.15234 -0.15625,-0.0185 -0.27636,0.0429 -0.40625,0.125 -0.1054,0.0667 -0.2154,0.17048 -0.35742,0.32031 -5.7e-4,5.8e-4 -0.001,0.001 -0.002,0.002 -8.2e-4,8.7e-4 -0.001,0.001 -0.002,0.002 -0.14362,0.14668 -0.301,0.31783 -0.47461,0.51172 -0.17099,0.19286 -0.35156,0.39776 -0.53906,0.61328 -0.18369,0.21294 -0.35777,0.41414 -0.52148,0.60156 -0.16017,0.18497 -0.30177,0.34559 -0.42578,0.48242 -0.0278,0.0297 -0.0266,0.0247 -0.0508,0.0488 -0.007,-0.021 -0.0103,-0.0306 -0.0195,-0.0566 l -0.004,-0.01 c -0.0242,-0.0796 -0.0502,-0.16537 -0.0781,-0.25976 -0.0296,-0.10021 -0.0611,-0.20471 -0.0937,-0.31446 -0.0322,-0.10842 -0.063,-0.21092 -0.0937,-0.30664 l -0.002,-0.006 c -0.0281,-0.0954 -0.0509,-0.17999 -0.0703,-0.25195 a 0.21411258,0.21411258 0 0 0 -0.002,-0.004 c -0.0225,-0.0774 -0.0363,-0.13423 -0.0391,-0.14843 a 0.21411258,0.21411258 0 0 0 -0.002,-0.01 c -0.0375,-0.15507 -0.0462,-0.30593 -0.0254,-0.45898 0.0192,-0.13873 0.0878,-0.29312 0.21679,-0.46485 4.5e-4,-5.9e-4 -4.4e-4,-0.001 0,-0.002 0.0472,-0.0545 0.10464,-0.12061 0.17969,-0.20312 a 0.21411258,0.21411258 0 0 0 0.004,-0.006 c 0.0761,-0.0887 0.16187,-0.18204 0.25586,-0.28321 a 0.21411258,0.21411258 0 0 0 0.004,-0.004 c 0.0956,-0.10662 0.19162,-0.21394 0.28711,-0.32032 l 0.002,-0.002 c 0.0969,-0.10664 0.18755,-0.20332 0.27148,-0.28906 a 0.21411258,0.21411258 0 0 0 0.004,-0.004 c 0.084,-0.0906 0.15437,-0.16572 0.21289,-0.22851 a 0.21411258,0.21411258 0 0 0 0.006,-0.006 c 0.0573,-0.066 0.11105,-0.11701 0.0898,-0.0996 a 0.21411258,0.21411258 0 0 0 0.0117,-0.0117 c 0.0309,-0.0297 0.096,-0.0883 0.19141,-0.17383 0.0978,-0.0868 0.19967,-0.17715 0.30859,-0.27148 a 0.21411258,0.21411258 0 0 0 0.004,-0.004 c 0.10605,-0.097 0.20578,-0.18462 0.29687,-0.26172 a 0.21411258,0.21411258 0 0 0 0.004,-0.004 c 0.0833,-0.0741 0.12819,-0.11534 0.16601,-0.15234 l 0.0234,-0.0215 c 0.10719,-0.0826 0.19845,-0.16357 0.26758,-0.25196 a 0.21411258,0.21411258 0 0 0 0.002,-0.002 c 0.0692,-0.0889 0.12173,-0.17729 0.1543,-0.27148 a 0.21411258,0.21411258 0 0 0 0,-0.002 c 0.0289,-0.0855 0.0424,-0.17703 0.0273,-0.26953 v -0.002 c -0.0118,-0.0781 -0.0391,-0.16077 -0.0937,-0.23047 a 0.21411258,0.21411258 0 0 0 -0.002,-0.002 c -0.0523,-0.0648 -0.12132,-0.10733 -0.19336,-0.13672 -0.0952,-0.0446 -0.2002,-0.0516 -0.29883,-0.0352 z m 18.22461,2.86133 c -0.15236,-4.2e-4 -0.30363,0.029 -0.45312,0.0781 -0.15246,0.0469 -0.30049,0.1134 -0.43946,0.20118 -0.21994,0.13898 -0.42619,0.30098 -0.61914,0.48632 -0.19527,0.18381 -0.3666,0.39241 -0.51367,0.62305 a 0.21411258,0.21411258 0 0 0 -0.002,0 c -0.10211,0.16112 -0.20286,0.3433 -0.30664,0.54492 -0.10367,0.19859 -0.20204,0.41288 -0.29492,0.64063 -0.0923,0.22395 -0.17566,0.45388 -0.24805,0.68945 a 0.21411258,0.21411258 0 0 0 0,0.002 c -0.07,0.23598 -0.12497,0.46896 -0.16602,0.69922 a 0.21411258,0.21411258 0 0 0 0,0.002 c -0.0384,0.23268 -0.0565,0.46056 -0.0488,0.68164 0.009,0.22045 0.0496,0.42643 0.1211,0.61328 a 0.21411258,0.21411258 0 0 0 0.004,0.01 c 0.0296,0.0673 0.0618,0.13413 0.0957,0.20313 a 0.21411258,0.21411258 0 0 0 0.006,0.0117 c 0.0406,0.071 0.0889,0.1455 0.14648,0.21875 0.0587,0.0749 0.12505,0.13731 0.19531,0.18945 a 0.21411258,0.21411258 0 0 0 0.002,0.002 c 0.061,0.0438 0.11998,0.083 0.17773,0.11524 a 0.21411258,0.21411258 0 0 0 0.004,0.002 c 0.16985,0.0899 0.3451,0.14818 0.52344,0.17188 0.16985,0.0226 0.33586,0.023 0.49804,0 a 0.21411258,0.21411258 0 0 0 0.002,-0.002 c 0.15455,-0.0231 0.30335,-0.0582 0.44531,-0.11132 a 0.21411258,0.21411258 0 0 0 0.006,-0.002 c 0.13868,-0.0563 0.26535,-0.12151 0.3789,-0.19336 0.0702,-0.0444 0.15134,-0.0987 0.24414,-0.16015 a 0.21411258,0.21411258 0 0 0 0.002,-0.002 c 0.0889,-0.0616 0.18401,-0.12507 0.28125,-0.18945 a 0.21411258,0.21411258 0 0 0 0.006,-0.004 c 0.093,-0.067 0.1867,-0.13201 0.27929,-0.19336 a 0.21411258,0.21411258 0 0 0 0.006,-0.004 c 0.089,-0.0646 0.16777,-0.11817 0.23438,-0.16016 a 0.21411258,0.21411258 0 0 0 0.002,0 c 0.11436,-0.0724 0.22675,-0.13502 0.33984,-0.18554 a 0.21411258,0.21411258 0 0 0 0.004,-0.002 c 0.10837,-0.0508 0.2102,-0.0845 0.30469,-0.10351 a 0.21411258,0.21411258 0 0 0 0.002,0 c 0.0941,-0.0205 0.17239,-0.0208 0.23047,-0.01 a 0.21411258,0.21411258 0 0 0 0.004,0 c 0.0473,0.008 0.0607,0.0177 0.082,0.0449 0.0144,0.0183 0.0367,0.0595 0.0566,0.11914 0.0165,0.0547 0.0331,0.14441 0.043,0.26172 a 0.21411258,0.21411258 0 0 0 0,0.002 c 0.0103,0.10806 0.012,0.24874 0.008,0.41601 -0.007,0.15947 -0.0252,0.34737 -0.0566,0.56641 a 0.21411258,0.21411258 0 0 0 0,0.004 c -0.0242,0.19388 -0.0685,0.38078 -0.13672,0.56055 -0.0716,0.18063 -0.15864,0.35175 -0.26367,0.51563 -0.104,0.15876 -0.22379,0.30535 -0.35938,0.43945 -0.1354,0.13393 -0.28435,0.2492 -0.44336,0.34961 -0.13471,0.0852 -0.26966,0.15311 -0.40625,0.20312 -0.14182,0.0513 -0.2841,0.0959 -0.42382,0.13086 -0.14462,0.033 -0.28746,0.0609 -0.42969,0.0879 -0.14856,0.0268 -0.29245,0.0602 -0.42774,0.0957 a 0.21411258,0.21411258 0 0 0 -0.13281,0.10742 c -0.026,0.026 -0.0578,0.043 -0.0762,0.0801 -0.0361,0.0728 -0.0388,0.1672 -0.0156,0.24023 a 0.21411258,0.21411258 0 0 0 0,0.006 c 0.0261,0.0755 0.0668,0.1484 0.11914,0.21484 0.0976,0.12451 0.21992,0.22289 0.36133,0.29297 a 0.21411258,0.21411258 0 0 0 0.01,0.004 c 0.13522,0.0596 0.27947,0.0986 0.43164,0.12109 a 0.21411258,0.21411258 0 0 0 0.004,0.002 c 0.15078,0.0195 0.3074,0.0227 0.4707,0.0117 a 0.21411258,0.21411258 0 0 0 0.008,0 c 0.16209,-0.0162 0.32335,-0.045 0.48438,-0.0898 0.16219,-0.0426 0.31689,-0.0971 0.46484,-0.16016 0.14921,-0.0636 0.28904,-0.13522 0.41797,-0.21679 0.29101,-0.18392 0.544,-0.40324 0.75976,-0.65625 0.2152,-0.25042 0.39658,-0.5188 0.54102,-0.80664 0.14311,-0.28504 0.25391,-0.58319 0.33203,-0.89453 v -0.002 c 0.0804,-0.31054 0.1313,-0.62181 0.15234,-0.92968 0.0113,-0.16921 0.018,-0.33613 0.0176,-0.50196 a 0.21411258,0.21411258 0 0 0 0,-0.004 c -0.003,-0.1723 -0.0164,-0.33772 -0.0391,-0.49805 a 0.21411258,0.21411258 0 0 0 -0.002,-0.002 c -0.0254,-0.16738 -0.0644,-0.32759 -0.11914,-0.47657 -0.0562,-0.15297 -0.13337,-0.29375 -0.23243,-0.41992 -0.15718,-0.20015 -0.3516,-0.35322 -0.57421,-0.44922 h -0.002 c -0.21178,-0.0961 -0.43797,-0.15056 -0.67383,-0.15625 -0.2317,-0.006 -0.468,0.0294 -0.70117,0.10156 -0.23512,0.0696 -0.4575,0.17108 -0.66601,0.30274 -0.0844,0.0533 -0.1802,0.1182 -0.28516,0.19336 -0.10149,0.0671 -0.20565,0.13875 -0.3125,0.21484 -0.10447,0.0718 -0.20558,0.14042 -0.30664,0.20703 -0.10219,0.0674 -0.19696,0.12645 -0.28125,0.17969 -0.11703,0.0727 -0.22474,0.10755 -0.32617,0.11328 -0.0931,0.004 -0.1189,-0.0111 -0.15625,-0.0586 -0.028,-0.0358 -0.0519,-0.0868 -0.0684,-0.15625 v -0.004 c -0.0121,-0.0669 -0.0113,-0.1524 0.01,-0.25976 0.0451,-0.23492 0.10648,-0.4873 0.18554,-0.75782 v -0.002 c 0.0807,-0.26746 0.18123,-0.52767 0.30469,-0.7793 a 0.21411258,0.21411258 0 0 0 0.002,0 c 0.12396,-0.25488 0.26934,-0.49109 0.43555,-0.70703 a 0.21411258,0.21411258 0 0 0 0,-0.002 c 0.16198,-0.21344 0.34535,-0.38242 0.55273,-0.51367 0.0628,-0.0391 0.12494,-0.0655 0.1836,-0.082 a 0.21411258,0.21411258 0 0 0 0.006,-0.002 c 0.0724,-0.0229 0.14733,-0.045 0.22656,-0.0644 a 0.21411258,0.21411258 0 0 0 0.004,0 c 0.0856,-0.0229 0.17201,-0.0483 0.25781,-0.0781 a 0.21411258,0.21411258 0 0 0 0.002,-0.002 c 0.1001,-0.0359 0.19907,-0.0839 0.29492,-0.14453 0.0531,-0.0337 0.0987,-0.0801 0.13477,-0.13281 0.0451,-0.0622 0.0688,-0.13273 0.0781,-0.19727 a 0.21411258,0.21411258 0 0 0 0.002,-0.0117 c 0.007,-0.0733 -0.003,-0.14975 -0.0274,-0.2246 -0.0268,-0.0825 -0.0716,-0.15733 -0.1289,-0.23047 -0.0987,-0.12573 -0.2238,-0.22532 -0.36914,-0.28711 -0.14056,-0.0613 -0.29328,-0.0927 -0.44922,-0.0918 z m -22.41211,0.93359 c 0.004,0.0202 0.0117,0.0632 0.0117,0.0645 1.35855,4.14731 0.37968,0.93928 1.69727,4.875 -0.04,-0.0265 -0.0639,-0.0718 -0.11133,-0.0801 -0.0718,-0.015 -0.14632,-0.0135 -0.21485,0 h -0.004 c -0.0702,0.0118 -0.13627,0.0321 -0.19922,0.0606 a 0.21411258,0.21411258 0 0 0 -0.002,0 c -0.053,0.0242 -0.0998,0.0496 -0.14258,0.0762 a 0.21411258,0.21411258 0 0 0 -0.004,0.004 c -0.16879,0.11162 -0.31093,0.23991 -0.42187,0.38868 -0.0989,0.12947 -0.19464,0.2745 -0.28516,0.43359 -0.0858,0.14771 -0.17624,0.30488 -0.27148,0.47461 -0.0879,0.15617 -0.20686,0.32928 -0.35743,0.51367 -0.15854,0.19378 -0.32811,0.37598 -0.51171,0.54883 -0.17999,0.17048 -0.34415,0.30011 -0.48438,0.38867 -0.0103,0.006 -0.0242,0.0177 -0.0391,0.0273 -0.005,-0.005 -0.002,-0.002 -0.0176,-0.0215 -0.01,-0.0126 -0.0598,-0.0936 -0.11914,-0.20898 l -0.002,-0.006 c -0.0578,-0.12198 -0.11777,-0.25515 -0.17969,-0.40039 a 0.21411258,0.21411258 0 0 0 0,-0.002 c -0.065,-0.14965 -0.12358,-0.29261 -0.17578,-0.43164 a 0.21411258,0.21411258 0 0 0 -0.002,0 c -0.0353,-0.0919 -0.0467,-0.14221 -0.0645,-0.20117 0.0504,-0.0511 0.10878,-0.11143 0.14258,-0.14453 a 0.21411258,0.21411258 0 0 0 0.002,-0.002 c 0.0585,-0.0598 0.1105,-0.11472 0.15625,-0.16407 a 0.21411258,0.21411258 0 0 0 0.008,-0.008 c 0.0479,-0.0567 0.0958,-0.11821 0.14453,-0.18359 l 0.002,-0.004 c 0.0515,-0.0663 0.12272,-0.15717 0.21289,-0.27734 a 0.21411258,0.21411258 0 0 0 0.002,-0.004 c 0.0868,-0.12078 0.20451,-0.27805 0.34961,-0.4707 a 0.21411258,0.21411258 0 0 0 0,-0.002 c 0.14395,-0.19452 0.3335,-0.4447 0.56446,-0.74804 0.0388,-0.0457 0.0978,-0.11842 0.18359,-0.21875 0.0861,-0.1002 0.17746,-0.20415 0.27148,-0.31446 v -0.002 c 0.0985,-0.11331 0.18912,-0.21884 0.26954,-0.31641 a 0.21411258,0.21411258 0 0 0 0.002,-0.002 c 0.0832,-0.10387 0.13753,-0.1756 0.17578,-0.23828 a 0.21411258,0.21411258 0 0 0 0,-0.002 c 0.0902,-0.15237 0.15277,-0.30841 0.17969,-0.4668 0.0325,-0.1779 -0.0114,-0.36792 -0.12305,-0.51172 -0.0716,-0.0942 -0.1871,-0.14104 -0.29102,-0.15039 -0.15259,-0.0181 -0.27501,0.0402 -0.40625,0.12305 -0.10802,0.0681 -0.21646,0.17321 -0.35742,0.32226 -5.6e-4,5.8e-4 -0.001,0.001 -0.002,0.002 -8.1e-4,8.5e-4 -0.001,0.001 -0.002,0.002 -0.14364,0.14668 -0.30101,0.31782 -0.47461,0.51172 -0.17099,0.19288 -0.35156,0.39776 -0.53907,0.61328 -0.1837,0.21292 -0.35777,0.41413 -0.52148,0.60156 -0.16017,0.18497 -0.30176,0.34558 -0.42578,0.48242 -0.0278,0.0297 -0.0266,0.0247 -0.0508,0.0488 -0.007,-0.0207 -0.0104,-0.0307 -0.0195,-0.0566 l -0.004,-0.01 c -0.0242,-0.0796 -0.0502,-0.16538 -0.0781,-0.25977 -0.0297,-0.10035 -0.0612,-0.20493 -0.0938,-0.31445 -0.0322,-0.10842 -0.063,-0.21093 -0.0937,-0.30664 l -0.002,-0.006 c -0.0281,-0.0949 -0.0509,-0.17779 -0.0703,-0.25 a 0.21411258,0.21411258 0 0 0 -0.002,-0.006 c -0.0223,-0.0765 -0.036,-0.13464 -0.0391,-0.15039 a 0.21411258,0.21411258 0 0 0 -0.002,-0.01 c -0.0372,-0.15399 -0.0444,-0.30227 -0.0234,-0.45703 0.0195,-0.14036 0.0868,-0.29634 0.21485,-0.4668 4.4e-4,-5.9e-4 -4.5e-4,-0.001 0,-0.002 0.0446,-0.0512 0.10447,-0.11634 0.18164,-0.20117 a 0.21411258,0.21411258 0 0 0 0.004,-0.006 c 0.0779,-0.091 0.16174,-0.18619 0.25391,-0.28516 a 0.21411258,0.21411258 0 0 0 0.004,-0.004 c 0.0947,-0.10565 0.19078,-0.21107 0.28711,-0.31836 l 0.002,-0.002 c 0.0971,-0.10674 0.18761,-0.20338 0.27148,-0.28906 a 0.21411258,0.21411258 0 0 0 0.004,-0.004 c 0.0851,-0.0917 0.15589,-0.1693 0.21289,-0.23047 a 0.21411258,0.21411258 0 0 0 0.006,-0.006 c 0.0549,-0.0632 0.1,-0.1081 0.0898,-0.0996 a 0.21411258,0.21411258 0 0 0 0.0117,-0.01 c 0.0332,-0.032 0.0966,-0.0908 0.19141,-0.17578 0.0968,-0.0859 0.20068,-0.17634 0.31054,-0.27148 a 0.21411258,0.21411258 0 0 0 0.004,-0.004 c 0.10596,-0.097 0.20363,-0.1825 0.29492,-0.25977 a 0.21411258,0.21411258 0 0 0 0.004,-0.004 c 0.0833,-0.0741 0.12812,-0.11526 0.16602,-0.15234 l 0.0234,-0.0215 c 0.10847,-0.0836 0.19936,-0.16833 0.26758,-0.25586 a 0.21411258,0.21411258 0 0 0 0.002,0 c 0.0217,-0.0278 0.0303,-0.0578 0.0488,-0.0859 z m 41.625,2.22852 c -2.32017,1.22042 -1.98073,1.46048 -2.98437,2.35351 l -0.0371,-0.0293 a 0.21411258,0.21411258 0 0 0 -0.0371,-0.0234 c -0.1109,-0.0573 -0.20308,-0.0519 -0.31641,-0.043 h -0.002 c -0.14844,0.008 -0.28752,0.0672 -0.43164,0.1582 -0.1074,0.0679 -0.18353,0.17878 -0.2207,0.29688 h 0.002 c -0.0318,0.0997 -0.0485,0.20848 -0.0488,0.32617 -1e-5,6.4e-4 1e-5,0.001 0,0.002 0,7e-4 0,0.001 0,0.002 -0.002,0.10983 0.006,0.221 0.0215,0.33594 a 0.21411258,0.21411258 0 0 0 0.002,0.006 c 0.0177,0.10569 0.0359,0.2109 0.0566,0.3125 a 0.21411258,0.21411258 0 0 0 0,0.004 c 0.0375,0.16525 0.0823,0.3274 0.13086,0.48633 0.049,0.16064 0.11241,0.34448 0.18945,0.55664 0.0744,0.20877 0.16627,0.45757 0.27734,0.74805 a 0.21411258,0.21411258 0 0 0 0,0.002 c 0.11079,0.28323 0.24497,0.63508 0.40235,1.05469 0.15581,0.41555 0.29908,0.84366 0.43164,1.2832 0.0969,0.3156 0.22074,0.62731 0.3418,0.93945 -0.2554,-0.1186 -0.51067,-0.23842 -0.73243,-0.32226 -0.29334,-0.11437 -0.56527,-0.20497 -0.81445,-0.26953 h -0.004 c -0.24416,-0.0678 -0.46725,-0.11589 -0.67382,-0.14258 h -0.004 c -0.19955,-0.0284 -0.39246,-0.0435 -0.57422,-0.041 h -0.004 c -0.17511,1.9e-4 -0.34061,0.012 -0.4961,0.0332 -0.007,8e-4 -0.0129,0.003 -0.0195,0.004 0.0411,-0.0683 0.0782,-0.13176 0.125,-0.20898 a 0.21411258,0.21411258 0 0 0 0,-0.002 c 0.081,-0.13737 0.16151,-0.27727 0.24219,-0.41602 a 0.21411258,0.21411258 0 0 0 0.002,-0.004 c 0.0807,-0.14621 0.14959,-0.27966 0.20508,-0.40429 v -0.002 c 0.14107,-0.30666 0.24389,-0.60396 0.30859,-0.89258 0.0667,-0.29776 0.0852,-0.58597 0.0488,-0.86328 -0.0326,-0.25421 -0.12808,-0.48827 -0.28125,-0.68359 -0.0438,-0.0557 -0.0921,-0.10677 -0.14453,-0.15625 l -0.002,-0.002 c -0.0571,-0.0584 -0.12632,-0.11446 -0.20508,-0.16797 l -0.002,-0.002 c -0.16305,-0.11246 -0.33898,-0.19056 -0.52343,-0.23046 h -0.002 c -0.17718,-0.0396 -0.35855,-0.0539 -0.54101,-0.043 h -0.002 c -0.17673,0.0101 -0.35213,0.0426 -0.52344,0.0937 -0.16823,0.0476 -0.32827,0.10249 -0.48047,0.16797 a 0.21411258,0.21411258 0 0 0 -0.002,0.002 c -0.14782,0.0644 -0.28587,0.12995 -0.41602,0.20312 -0.12551,0.0705 -0.23502,0.13572 -0.32617,0.19336 -0.16175,0.10238 -0.29305,0.19211 -0.39844,0.26758 -0.0984,0.0707 -0.18569,0.13242 -0.26172,0.18946 a 0.21411258,0.21411258 0 0 0 0,0.002 c -0.0712,0.0539 -0.13537,0.10228 -0.1914,0.14648 -0.0471,0.0372 -0.10058,0.0729 -0.15821,0.10938 -0.0677,0.0428 -0.13932,0.0808 -0.21484,0.11133 -0.0785,0.0316 -0.15738,0.0598 -0.23828,0.084 a 0.21411258,0.21411258 0 0 0 -0.008,0.002 c -0.0814,0.0272 -0.1637,0.0581 -0.2461,0.0918 -0.0871,0.0329 -0.17093,0.0739 -0.25195,0.125 a 0.21411258,0.21411258 0 0 0 -0.002,0 c -0.20445,0.12905 -0.3554,0.30003 -0.39258,0.51367 a 0.21411258,0.21411258 0 0 0 0,0.004 c -0.0163,0.10461 0.0348,0.22221 0.0586,0.33398 -0.0202,0.002 -0.0406,-0.009 -0.0606,-0.006 h -0.002 c -0.0979,0.0134 -0.19499,0.0444 -0.30469,0.0918 a 0.21411258,0.21411258 0 0 0 -0.002,0 c -0.116,0.0502 -0.24681,0.12231 -0.39648,0.2168 -0.15241,0.0963 -0.29532,0.19959 -0.4336,0.30468 v -0.002 c -0.1395,0.10477 -0.28145,0.22073 -0.42578,0.34961 -0.14241,0.12302 -0.28827,0.25869 -0.4375,0.40625 -0.14909,0.14737 -0.30752,0.31018 -0.47656,0.49024 a 0.21411258,0.21411258 0 0 0 -0.0117,0.0137 c -0.0156,0.0197 -0.0517,0.0596 -0.10352,0.11133 a 0.21411258,0.21411258 0 0 0 -0.002,0 c -0.0521,0.0521 -0.11154,0.11032 -0.17773,0.17187 -0.066,0.0626 -0.12932,0.12499 -0.19141,0.18359 -0.008,0.007 -0.0119,0.009 -0.0195,0.0156 l -0.0371,-0.0293 a 0.21411258,0.21411258 0 0 0 -0.0352,-0.0234 c -0.11137,-0.0578 -0.20516,-0.0519 -0.31836,-0.043 h -0.002 c -0.14844,0.008 -0.28753,0.0672 -0.43164,0.1582 -0.10738,0.0679 -0.18354,0.17874 -0.2207,0.29687 h 0.002 c -0.0318,0.0998 -0.0485,0.20848 -0.0488,0.32618 -1e-5,6.3e-4 1e-5,0.001 0,0.002 0,6.9e-4 0,0.001 0,0.002 -0.002,0.10982 0.006,0.22099 0.0215,0.33594 a 0.21411258,0.21411258 0 0 0 0.002,0.006 c 0.0177,0.10569 0.0359,0.21091 0.0566,0.3125 a 0.21411258,0.21411258 0 0 0 0,0.004 c 0.0371,0.16357 0.0798,0.32575 0.12891,0.48633 0.049,0.16064 0.1124,0.34448 0.18945,0.55664 0.075,0.20959 0.16878,0.45831 0.2793,0.74805 a 0.21411258,0.21411258 0 0 0 0,0.002 c 0.11046,0.28242 0.24281,0.63452 0.40039,1.05469 0.15601,0.41609 0.30119,0.84422 0.43359,1.2832 0.13687,0.44576 0.29795,0.88833 0.48242,1.32813 0.0582,0.14182 0.1315,0.26974 0.21875,0.38086 0.16578,0.20734 0.39694,0.34526 0.65039,0.3418 0.24392,-0.004 0.49204,-0.0989 0.75,-0.26172 0.22706,-0.14345 0.46294,-0.32527 0.70899,-0.54297 0.24847,-0.21979 0.48543,-0.4687 0.71094,-0.74414 0.0883,-0.10863 0.18816,-0.2325 0.29882,-0.3711 a 0.21411258,0.21411258 0 0 0 0.002,-0.002 c 0.10993,-0.14306 0.21822,-0.29195 0.32812,-0.44727 a 0.21411258,0.21411258 0 0 0 0.004,-0.002 c 0.10814,-0.1591 0.21122,-0.32075 0.30859,-0.48047 0.10025,-0.1644 0.18238,-0.32354 0.25,-0.47851 0.0698,-0.15864 0.11683,-0.31093 0.13867,-0.45899 0.0228,-0.15689 0.005,-0.31421 -0.0684,-0.44726 -0.046,-0.0866 -0.14241,-0.16132 -0.24414,-0.18164 -0.0698,-0.0164 -0.14438,-0.0194 -0.21875,-0.004 -0.0682,0.0111 -0.13473,0.032 -0.19531,0.0606 -0.0475,0.0207 -0.0942,0.0423 -0.14062,0.0723 -0.16283,0.10731 -0.29958,0.23573 -0.40625,0.37891 -0.0953,0.12492 -0.18572,0.26337 -0.27149,0.41406 -0.081,0.1397 -0.16983,0.28964 -0.26172,0.45313 -0.0839,0.14939 -0.19651,0.31492 -0.33984,0.49023 -0.15137,0.18484 -0.31302,0.3583 -0.48828,0.52344 -0.1716,0.1625 -0.32941,0.28672 -0.46289,0.37109 a 0.21411258,0.21411258 0 0 0 -0.002,0.004 c -0.004,0.003 -0.0199,0.0122 -0.0312,0.0195 -0.006,-0.005 -2.1e-4,-6e-5 -0.01,-0.0117 v -0.002 c -0.009,-0.0122 -0.0556,-0.0881 -0.11133,-0.19727 l -0.002,-0.006 c -0.0551,-0.1157 -0.1128,-0.24391 -0.17188,-0.38281 -0.0618,-0.14302 -0.11793,-0.28294 -0.16797,-0.41601 a 0.21411258,0.21411258 0 0 0 -0.002,-0.002 c -0.0332,-0.0859 -0.0436,-0.12875 -0.0605,-0.18359 0.0466,-0.0465 0.10002,-0.1001 0.13282,-0.13281 a 0.21411258,0.21411258 0 0 0 0.002,-0.002 c 0.0574,-0.0576 0.1079,-0.11106 0.15234,-0.16015 a 0.21411258,0.21411258 0 0 0 0.006,-0.006 c 0.0454,-0.0538 0.0917,-0.11262 0.13867,-0.17578 l 0.002,-0.004 c 0.0496,-0.0642 0.11736,-0.1515 0.20312,-0.26563 a 0.21411258,0.21411258 0 0 0 0.002,-0.004 c 0.083,-0.11613 0.19362,-0.26576 0.33203,-0.44922 a 0.21411258,0.21411258 0 0 0 0,-0.002 c 0.13724,-0.18555 0.31951,-0.42609 0.54101,-0.7168 l 0.006,-0.008 c 0.0357,-0.0424 0.0905,-0.1064 0.16992,-0.19922 0.0831,-0.097 0.16896,-0.19675 0.25782,-0.30078 v -0.002 c 0.0944,-0.10841 0.18104,-0.20948 0.25781,-0.30273 a 0.21411258,0.21411258 0 0 0 0.002,-0.004 c 0.0775,-0.0988 0.1296,-0.1647 0.16602,-0.2207 a 0.21411258,0.21411258 0 0 0 0.004,-0.008 c 0.0868,-0.14692 0.14614,-0.2973 0.17188,-0.44922 0.0315,-0.17245 -0.0119,-0.35718 -0.11914,-0.4961 -0.0666,-0.0873 -0.17808,-0.13835 -0.28125,-0.14843 -0.1558,-0.0193 -0.27225,0.0426 -0.39649,0.12109 -0.10342,0.0653 -0.20849,0.16561 -0.34375,0.3086 -5.6e-4,5.7e-4 -0.001,0.001 -0.002,0.002 -8.1e-4,8.5e-4 -0.001,0.001 -0.002,0.002 -0.13633,0.13944 -0.28842,0.30226 -0.45508,0.48828 -0.16394,0.18476 -0.33472,0.38015 -0.51367,0.58594 -0.17504,0.20339 -0.34321,0.39683 -0.5,0.57617 -0.15326,0.17693 -0.28796,0.33039 -0.40625,0.46094 -0.0204,0.0218 -0.0187,0.0165 -0.0371,0.0352 -0.005,-0.0148 -0.006,-0.0201 -0.0117,-0.0371 -0.0239,-0.078 -0.0507,-0.16239 -0.0781,-0.25586 -0.0284,-0.0958 -0.0589,-0.19629 -0.0898,-0.30078 -0.0306,-0.10334 -0.0601,-0.20257 -0.0898,-0.29493 l -0.002,-0.006 c -0.0274,-0.0925 -0.0506,-0.17213 -0.0684,-0.23828 a 0.21411258,0.21411258 0 0 0 -0.002,-0.008 c -0.0208,-0.0692 -0.0319,-0.1166 -0.0352,-0.13476 a 0.21411258,0.21411258 0 0 0 -0.002,-0.0137 c -0.0354,-0.14706 -0.0433,-0.29045 -0.0234,-0.43554 0.0182,-0.13258 0.0814,-0.27963 0.20313,-0.44141 4.4e-4,-5.9e-4 -4.5e-4,-0.001 0,-0.002 0.0422,-0.048 0.0997,-0.10965 0.17383,-0.19141 a 0.21411258,0.21411258 0 0 0 0.004,-0.006 c 0.0747,-0.087 0.15417,-0.17677 0.24219,-0.27148 a 0.21411258,0.21411258 0 0 0 0.002,-0.004 c 0.0908,-0.10074 0.18501,-0.20164 0.27735,-0.30469 l 0.002,-0.002 c 0.0933,-0.10233 0.17824,-0.1939 0.25781,-0.27539 a 0.21411258,0.21411258 0 0 0 0.006,-0.006 c 0.0793,-0.0871 0.14697,-0.16037 0.20118,-0.2168 a 0.21411258,0.21411258 0 0 0 0.008,-0.008 c 0.0541,-0.0624 0.10539,-0.10857 0.082,-0.0898 a 0.21411258,0.21411258 0 0 0 0.0195,-0.0195 c 0.0259,-0.0269 0.0839,-0.0833 0.17383,-0.16211 a 0.21411258,0.21411258 0 0 0 0.004,-0.002 c 0.0905,-0.0823 0.18847,-0.16737 0.29297,-0.25586 a 0.21411258,0.21411258 0 0 0 0.006,-0.006 c 0.1013,-0.0918 0.19488,-0.17436 0.28321,-0.25 a 0.21411258,0.21411258 0 0 0 0.006,-0.004 c 0.0923,-0.0835 0.15077,-0.14004 0.17382,-0.16211 l -0.0215,0.0176 c 0.11533,-0.0859 0.21012,-0.17173 0.2832,-0.26563 0.0338,-0.0433 0.0537,-0.0913 0.0801,-0.13672 0.027,0.0284 0.0551,0.055 0.084,0.0918 0.0573,0.073 0.10485,0.14439 0.14454,0.2168 a 0.21411258,0.21411258 0 0 0 0.002,0.004 c 0.0428,0.0729 0.0841,0.15164 0.12109,0.23047 0.0364,0.0796 0.0698,0.16026 0.10352,0.24414 a 0.21411258,0.21411258 0 0 0 0.002,0.002 c 0.0359,0.0868 0.0737,0.17818 0.11524,0.27343 0.30623,0.72774 0.60173,1.4519 0.88476,2.17383 0.28214,0.72183 0.57773,1.44949 0.88477,2.17969 a 0.21411258,0.21411258 0 0 0 0.002,0.008 c 0.0204,0.0446 0.0457,0.0922 0.0742,0.14258 0.0275,0.0497 0.0589,0.0995 0.0957,0.14648 0.0974,0.12436 0.22606,0.21706 0.37305,0.26953 a 0.21411258,0.21411258 0 0 0 0.004,0.002 c 0.18409,0.0627 0.38166,0.009 0.55079,-0.0977 0.10873,-0.0689 0.19721,-0.1711 0.24804,-0.29297 0.0536,-0.11595 0.0727,-0.24506 0.0606,-0.36914 a 0.21411258,0.21411258 0 0 0 -0.0137,-0.0566 c -0.0161,-0.041 -0.04,-0.098 -0.0703,-0.16797 l -0.004,-0.0117 c -0.0272,-0.0736 -0.0588,-0.15666 -0.0957,-0.25 l -0.002,-0.006 c -0.0353,-0.0974 -0.0743,-0.20127 -0.11718,-0.30859 l -0.002,-0.006 c -0.04,-0.10872 -0.0783,-0.21259 -0.11523,-0.3125 -0.0388,-0.1034 -0.0767,-0.19784 -0.10938,-0.28125 a 0.21411258,0.21411258 0 0 0 -0.002,-0.002 c -0.0336,-0.0821 -0.0569,-0.14725 -0.0742,-0.19336 a 0.21411258,0.21411258 0 0 0 -0.004,-0.006 l -0.40624,-0.97852 c 0.0839,0.006 0.16568,0.0318 0.25,0.01 a 0.21411258,0.21411258 0 0 0 0.0879,-0.0469 c 0.0648,-0.0578 0.12987,-0.11795 0.19531,-0.17968 a 0.21411258,0.21411258 0 0 0 0.004,-0.004 c 0.0527,-0.0518 0.12081,-0.10375 0.20704,-0.1582 a 0.21411258,0.21411258 0 0 0 0,-0.002 l 0.0703,-0.0449 v 0.002 c 0.13659,-0.0865 0.296,-0.14753 0.48437,-0.1836 a 0.21411258,0.21411258 0 0 0 0.002,-0.002 c 0.19188,-0.0387 0.39611,-0.0554 0.61328,-0.0508 0.21811,0.006 0.44492,0.0335 0.67578,0.0859 a 0.21411258,0.21411258 0 0 0 0.002,0 c 0.23739,0.0513 0.46764,0.1188 0.69336,0.20117 0.2074,0.077 0.39546,0.16354 0.56641,0.25781 a 0.21411258,0.21411258 0 0 0 0.004,0.002 c 0.18611,0.0985 0.35719,0.18378 0.51563,0.25782 a 0.21411258,0.21411258 0 0 0 0,0.002 c 0.16614,0.0768 0.32288,0.13073 0.4707,0.16016 0.1754,0.0342 0.35811,-0.002 0.50781,-0.0957 0.0963,-0.0608 0.17908,-0.14068 0.23829,-0.23633 a 0.21411258,0.21411258 0 0 0 0.006,-0.008 c 0.0328,-0.0583 0.0433,-0.12492 0.0605,-0.18945 0.10824,0.057 0.22764,0.0915 0.35156,0.0898 0.24394,-0.004 0.49204,-0.0989 0.75,-0.26172 0.2276,-0.14374 0.46144,-0.32566 0.70704,-0.54297 0.24798,-0.21938 0.48508,-0.46638 0.71093,-0.74218 0.0883,-0.10863 0.18817,-0.23249 0.29883,-0.3711 a 0.21411258,0.21411258 0 0 0 0.002,-0.002 c 0.10981,-0.14287 0.21998,-0.2936 0.33008,-0.44922 a 0.21411258,0.21411258 0 0 0 0.004,-0.002 c 0.10767,-0.15842 0.2108,-0.31811 0.30859,-0.47852 0.10025,-0.16439 0.18238,-0.32354 0.25,-0.47851 0.0694,-0.15842 0.11658,-0.31119 0.13867,-0.45899 0.0228,-0.15719 0.005,-0.31497 -0.0684,-0.44922 -0.046,-0.0865 -0.14239,-0.1613 -0.24415,-0.18164 -0.075,-0.0173 -0.15023,-0.0166 -0.2207,-0.002 h -0.002 c -0.0633,0.0102 -0.12937,0.0284 -0.19336,0.0586 -0.0535,0.0237 -0.10051,0.0495 -0.13867,0.0742 -0.16097,0.10608 -0.3,0.23172 -0.40821,0.37696 -0.0953,0.12491 -0.18571,0.26335 -0.27148,0.41406 -0.0822,0.14172 -0.16887,0.29335 -0.25977,0.45508 -0.0835,0.14874 -0.19605,0.31238 -0.33984,0.48828 -0.15083,0.18417 -0.31441,0.35774 -0.49023,0.52343 -0.17215,0.16302 -0.32818,0.28719 -0.46094,0.3711 a 0.21411258,0.21411258 0 0 0 -0.002,0.004 c 0.001,-9.7e-4 -0.0186,0.0117 -0.0312,0.0195 -0.005,-0.004 -0.001,4.1e-4 -0.01,-0.01 v -0.002 c -0.01,-0.013 -0.0579,-0.0907 -0.11328,-0.19922 l -0.002,-0.006 c -0.0556,-0.11673 -0.11303,-0.24275 -0.17188,-0.38086 a 0.21411258,0.21411258 0 0 0 0,-0.002 c -0.0618,-0.14249 -0.11784,-0.28077 -0.16797,-0.41407 a 0.21411258,0.21411258 0 0 0 -0.002,-0.002 c -0.0332,-0.0859 -0.0437,-0.12874 -0.0606,-0.18359 0.047,-0.0475 0.10099,-0.10301 0.13281,-0.13477 a 0.21411258,0.21411258 0 0 0 0.002,-0.002 c 0.0556,-0.0558 0.10587,-0.10685 0.15234,-0.1582 a 0.21411258,0.21411258 0 0 0 0.006,-0.006 c 0.0454,-0.0538 0.0917,-0.11261 0.13867,-0.17578 l 0.002,-0.004 c 0.0496,-0.0642 0.11737,-0.15151 0.20313,-0.26563 a 0.21411258,0.21411258 0 0 0 0.002,-0.004 c 0.0827,-0.11577 0.19545,-0.26755 0.33399,-0.45117 a 0.21411258,0.21411258 0 0 0 0,-0.002 c 0.13758,-0.186 0.31851,-0.42529 0.53906,-0.71484 0.0353,-0.042 0.0934,-0.11269 0.17578,-0.20899 0.0821,-0.0957 0.16991,-0.19559 0.25977,-0.30078 v -0.002 c 0.0935,-0.10744 0.18011,-0.20641 0.25781,-0.30078 a 0.21411258,0.21411258 0 0 0 0.002,-0.004 c 0.0786,-0.10024 0.13038,-0.1689 0.16406,-0.2207 a 0.21411258,0.21411258 0 0 0 0.004,-0.008 c 0.0872,-0.14754 0.14597,-0.29976 0.17188,-0.45117 0.0315,-0.17247 -0.0118,-0.35719 -0.11914,-0.4961 -0.0688,-0.0901 -0.18264,-0.1368 -0.28125,-0.14648 -0.15193,-0.0188 -0.26897,0.04 -0.39454,0.11914 -0.10374,0.0652 -0.21001,0.16517 -0.3457,0.30859 -5.6e-4,5.8e-4 -0.001,0.001 -0.002,0.002 -8.1e-4,8.6e-4 -0.001,0.001 -0.002,0.002 -0.13635,0.13945 -0.28842,0.30227 -0.45508,0.48828 -0.16393,0.18474 -0.33472,0.38013 -0.51368,0.58594 -0.17507,0.20339 -0.34322,0.39685 -0.5,0.57617 -0.15326,0.17695 -0.28795,0.33037 -0.40624,0.46094 -0.0205,0.0219 -0.0185,0.0163 -0.0371,0.0352 -0.005,-0.0139 -0.006,-0.0191 -0.0117,-0.0352 -0.0236,-0.0771 -0.0504,-0.1636 -0.0781,-0.25782 -0.0284,-0.0958 -0.0589,-0.19627 -0.0898,-0.30078 -0.0311,-0.10385 -0.0605,-0.20105 -0.0899,-0.29297 l -0.002,-0.004 c -0.0275,-0.0928 -0.0502,-0.17462 -0.0684,-0.24219 a 0.21411258,0.21411258 0 0 0 -0.002,-0.006 c -0.0209,-0.0698 -0.032,-0.11889 -0.0352,-0.13672 a 0.21411258,0.21411258 0 0 0 -0.002,-0.0137 c -0.0354,-0.14705 -0.0433,-0.29045 -0.0234,-0.43555 0.018,-0.13103 0.0828,-0.27886 0.20508,-0.4414 4.5e-4,-6e-4 -4.5e-4,-0.001 0,-0.002 0.0436,-0.0498 0.0989,-0.11095 0.17188,-0.1914 a 0.21411258,0.21411258 0 0 0 0.004,-0.006 c 0.0735,-0.0856 0.15509,-0.17567 0.24414,-0.27149 a 0.21411258,0.21411258 0 0 0 0.002,-0.004 c 0.0918,-0.10184 0.18407,-0.20273 0.27539,-0.30469 l 0.002,-0.002 c 0.0933,-0.10233 0.17822,-0.19389 0.25781,-0.27539 a 0.21411258,0.21411258 0 0 0 0.006,-0.006 c 0.0793,-0.0871 0.14696,-0.16035 0.20117,-0.2168 a 0.21411258,0.21411258 0 0 0 0.008,-0.008 c 0.0535,-0.0618 0.10439,-0.10733 0.082,-0.0899 a 0.21411258,0.21411258 0 0 0 0.0215,-0.0195 c 0.0264,-0.0273 0.0844,-0.0838 0.17383,-0.16211 a 0.21411258,0.21411258 0 0 0 0.004,-0.002 c 0.0916,-0.0833 0.18751,-0.16821 0.29102,-0.25586 a 0.21411258,0.21411258 0 0 0 0.006,-0.006 c 0.1013,-0.0918 0.19488,-0.17435 0.2832,-0.25 a 0.21411258,0.21411258 0 0 0 0.006,-0.004 c 0.0899,-0.0813 0.14404,-0.12976 0.17578,-0.16015 l -0.0215,0.0176 c 0.11668,-0.0869 0.21127,-0.17513 0.2832,-0.26758 0.0651,-0.0835 0.11659,-0.16686 0.14844,-0.25781 0.0313,-0.0882 0.0437,-0.18242 0.0254,-0.27539 -0.0116,-0.0761 -0.0372,-0.15305 -0.0879,-0.21876 l -0.002,-0.002 c -0.0508,-0.0648 -0.12255,-0.11292 -0.19922,-0.14062 -0.0969,-0.0405 -0.19414,-0.0391 -0.28321,-0.0234 z m -24.38086,1.05469 c -1.13833,-0.1134 -2.58424,2.97176 -2.33203,1.9414 -0.10759,0.33184 -0.1889,0.6831 -0.24023,1.05274 a 0.21411258,0.21411258 0 0 0 0,0.002 c -0.0476,0.36349 -0.0754,0.72415 -0.0859,1.08008 -0.009,0.34872 -0.006,0.68264 0.0117,1.00195 0.0167,0.3154 0.0376,0.58929 0.0644,0.82422 0.0195,0.26419 0.0487,0.5258 0.0859,0.7832 0.0392,0.25845 0.0916,0.50843 0.15625,0.75 a 0.21411258,0.21411258 0 0 0 0,0.002 c 0.0663,0.23932 0.14848,0.46952 0.24609,0.6875 0.0974,0.2193 0.21756,0.41931 0.35742,0.59765 0.0588,0.0748 0.12778,0.1487 0.20899,0.22461 0.0842,0.0802 0.17678,0.15014 0.27734,0.20703 a 0.21411258,0.21411258 0 0 0 0.01,0.006 c 0.106,0.0533 0.21711,0.0878 0.32812,0.10352 a 0.21411258,0.21411258 0 0 0 0.01,0 c 0.13851,0.0123 0.2807,-0.0258 0.40039,-0.10156 0.0784,-0.0496 0.14048,-0.11847 0.1875,-0.19336 0.0453,-0.0666 0.0822,-0.1409 0.10352,-0.22266 a 0.21411258,0.21411258 0 0 0 0,-0.002 c 0.0197,-0.0767 0.0294,-0.15342 0.0273,-0.22852 a 0.21411258,0.21411258 0 0 0 -0.002,-0.006 c -0.004,-0.0838 -0.0235,-0.16598 -0.0606,-0.24023 a 0.21411258,0.21411258 0 0 0 0,-0.002 c -0.0285,-0.0557 -0.0685,-0.12288 -0.11914,-0.20508 -0.0476,-0.0772 -0.0969,-0.16055 -0.15039,-0.2461 a 0.21411258,0.21411258 0 0 0 0,-0.002 c -0.0537,-0.0849 -0.10646,-0.16339 -0.1543,-0.24023 l -0.004,-0.008 c -0.0428,-0.0762 -0.0744,-0.13959 -0.0898,-0.17968 a 0.21411258,0.21411258 0 0 0 0,-0.002 c -0.0397,-0.10103 -0.0791,-0.21284 -0.11914,-0.33398 a 0.21411258,0.21411258 0 0 0 0,-0.002 c -0.0413,-0.12115 -0.0791,-0.24496 -0.11133,-0.37109 a 0.21411258,0.21411258 0 0 0 0,-0.002 c -0.0339,-0.12778 -0.0611,-0.25467 -0.0801,-0.37891 a 0.21411258,0.21411258 0 0 0 0,-0.002 c -0.0107,-0.0653 -0.0131,-0.12505 -0.0195,-0.1875 0.001,-5e-5 0.003,4e-5 0.004,0 a 0.21411258,0.21411258 0 0 0 0.0117,-0.002 c 0.10403,-0.01 0.2087,-0.0427 0.29883,-0.0996 0.21611,-0.13651 0.40617,-0.2938 0.57226,-0.46875 0.15102,-0.15907 0.3062,-0.31425 0.46289,-0.46485 0.10812,-0.10416 0.21027,-0.20118 0.30664,-0.29492 a 0.21411258,0.21411258 0 0 0 0.004,-0.004 c 0.0927,-0.0941 0.18222,-0.18372 0.26758,-0.26562 a 0.21411258,0.21411258 0 0 0 0.004,-0.004 c 0.0848,-0.0857 0.16897,-0.16427 0.25391,-0.24023 a 0.21411258,0.21411258 0 0 0 0.002,-0.002 c 0.0812,-0.0746 0.16855,-0.14644 0.25977,-0.21485 a 0.21411258,0.21411258 0 0 0 0,-0.002 c 0.0424,-0.0323 0.0804,-0.0618 0.11914,-0.0918 0.007,0.0164 0.0145,0.0325 0.0215,0.0488 a 0.21411258,0.21411258 0 0 0 0.002,0.006 c 0.0446,0.0973 0.0859,0.19231 0.12304,0.28516 a 0.21411258,0.21411258 0 0 0 0.002,0.002 c 0.0387,0.0933 0.0748,0.18017 0.11132,0.26172 0.0346,0.0778 0.0632,0.14619 0.0879,0.20312 v -0.004 c 0.0161,0.0384 0.0398,0.10661 0.0664,0.19726 0.0269,0.0908 0.0531,0.19115 0.0781,0.30274 0.0264,0.11737 0.0546,0.24064 0.084,0.36718 0.0297,0.12778 0.0601,0.24886 0.0898,0.36524 a 0.21411258,0.21411258 0 0 0 0.002,0.006 c 0.0332,0.11549 0.0676,0.2212 0.10156,0.31445 0.0342,0.0971 0.069,0.17636 0.125,0.24805 a 0.21411258,0.21411258 0 0 0 0,0.002 c 0.0493,0.0628 0.10797,0.11854 0.17578,0.16602 a 0.21411258,0.21411258 0 0 0 0.01,0.006 c 0.0717,0.0452 0.14909,0.0787 0.23047,0.0996 a 0.21411258,0.21411258 0 0 0 0.01,0.002 c 0.0877,0.0179 0.178,0.0193 0.26758,0.006 0.0704,-0.0107 0.13735,-0.0439 0.20312,-0.0762 a 0.21411258,0.21411258 0 0 0 0.082,-0.0293 c 0.12981,-0.082 0.23383,-0.17828 0.29882,-0.30274 a 0.21411258,0.21411258 0 0 0 0.004,-0.008 c 0.0513,-0.10705 0.0792,-0.22277 0.0781,-0.33984 a 0.21411258,0.21411258 0 0 0 0,-0.006 c -0.004,-0.11065 -0.0274,-0.22027 -0.0664,-0.32813 a 0.21411258,0.21411258 0 0 0 0,-0.002 c -0.0309,-0.0842 -0.0623,-0.16546 -0.0937,-0.24609 -0.0114,-0.0564 -0.0256,-0.11673 -0.0449,-0.1875 v -0.002 c -0.0206,-0.0876 -0.046,-0.17954 -0.0742,-0.27539 l -0.002,-0.004 c -0.0271,-0.0986 -0.0559,-0.19695 -0.0859,-0.29493 v -0.004 c -0.029,-0.10202 -0.0577,-0.19346 -0.0859,-0.27734 l -0.002,-0.004 c -0.0266,-0.0861 -0.0506,-0.15882 -0.0742,-0.2207 -0.0201,-0.0593 -0.0343,-0.10425 -0.0352,-0.10743 a 0.21411258,0.21411258 0 0 0 -0.01,-0.0254 l -0.26758,-0.65429 a 0.21411258,0.21411258 0 0 0 -0.002,-0.006 c -0.0707,-0.16189 -0.1489,-0.34031 -0.23828,-0.53711 l -0.002,-0.002 c -0.0878,-0.2022 -0.18545,-0.40793 -0.29297,-0.61718 l -0.002,-0.002 c -0.10548,-0.21315 -0.22099,-0.42348 -0.34766,-0.63281 l -0.002,-0.004 c -0.1259,-0.21544 -0.26274,-0.41777 -0.41016,-0.60547 -0.1691,-0.21541 -0.35402,-0.40495 -0.55273,-0.57032 -0.20223,-0.17272 -0.42216,-0.30471 -0.66016,-0.38671 -0.12144,-0.0417 -0.24676,-0.0677 -0.375,-0.0801 z m -0.20703,1.46484 c 0.5431,0.16627 1.36674,1.63705 1.08399,1.19141 -0.0721,0.0673 -0.13641,0.12757 -0.24415,0.22851 -0.15859,0.14377 -0.33379,0.29938 -0.52929,0.4668 -0.19248,0.16526 -0.39271,0.32875 -0.59766,0.49023 -0.20262,0.15962 -0.38811,0.29115 -0.55469,0.39649 l -0.19921,0.12695 c -2.1e-4,-0.006 1.6e-4,-0.014 0,-0.0195 v -0.002 c -7e-4,-0.0395 -5.3e-4,-0.0701 0,-0.082 a 0.21411258,0.21411258 0 0 0 0,-0.002 c 0.005,-0.14616 0.0108,-0.30618 0.0215,-0.48047 a 0.21411258,0.21411258 0 0 0 0,-0.002 c 0.009,-0.17205 0.0264,-0.3486 0.0488,-0.52734 v -0.002 c 0.0253,-0.17955 0.0569,-0.35882 0.0957,-0.53906 v -0.002 c 0.0404,-0.17626 0.0932,-0.33762 0.1582,-0.49024 0.0646,-0.15178 0.14005,-0.28755 0.22852,-0.4082 a 0.21411258,0.21411258 0 0 0 0.002,-0.002 c 0.0847,-0.11854 0.1846,-0.21382 0.30078,-0.28711 a 0.21411258,0.21411258 0 0 0 0.002,0 c 0.0835,-0.053 0.13718,-0.0624 0.18359,-0.0547 z m -5.1543,0.87109 c -0.0908,0.0198 -0.17936,0.059 -0.26562,0.11329 -0.087,0.0549 -0.16095,0.13915 -0.20703,0.23632 -4.1e-4,8.6e-4 -0.002,0.001 -0.002,0.002 -0.0426,0.0844 -0.0691,0.17325 -0.082,0.26367 a 0.21411258,0.21411258 0 0 0 0,0.002 c -0.0131,0.0921 -0.01,0.18379 0.004,0.27539 0.0129,0.0863 0.0317,0.17097 0.0644,0.25196 0.0708,0.17536 0.1461,0.34278 0.22461,0.5039 a 0.21411258,0.21411258 0 0 0 0.002,0.004 c 0.0784,0.15399 0.15856,0.30718 0.24023,0.45898 a 0.21411258,0.21411258 0 0 0 0.002,0 c 0.0808,0.15001 0.15956,0.30053 0.24024,0.45117 0.0791,0.14689 0.1582,0.30161 0.23437,0.46289 0.0778,0.16778 0.15673,0.36091 0.23633,0.57813 a 0.21411258,0.21411258 0 0 0 0,0.002 c 0.0802,0.21153 0.1563,0.43944 0.22852,0.6836 a 0.21411258,0.21411258 0 0 0 0,0.002 c 0.0732,0.239 0.14057,0.48541 0.19921,0.74023 a 0.21411258,0.21411258 0 0 0 0.002,0.002 c 0.0617,0.25276 0.11128,0.503 0.15039,0.75 a 0.21411258,0.21411258 0 0 0 0,0.004 c 0.0418,0.24348 0.0697,0.47635 0.084,0.70118 a 0.21411258,0.21411258 0 0 0 0,0.002 c 0.0172,0.22139 0.0187,0.42189 0.006,0.59961 -0.0148,0.17142 -0.0458,0.31405 -0.0898,0.42773 -0.0408,0.1031 -0.0893,0.15703 -0.14063,0.18946 a 0.21411258,0.21411258 0 0 0 -0.002,0.002 c -0.012,0.008 -0.0248,0.012 -0.0644,0.006 -0.0608,-0.0141 -0.13018,-0.0407 -0.21094,-0.084 -0.0818,-0.0475 -0.16833,-0.10287 -0.25586,-0.16601 l -0.004,-0.004 c -0.001,-9e-4 -0.003,-0.001 -0.004,-0.002 -0.0894,-0.0703 -0.17313,-0.14232 -0.25,-0.21289 -0.0829,-0.0764 -0.15568,-0.14494 -0.2168,-0.20703 v -0.002 c -8.5e-4,-8.6e-4 -0.003,-0.001 -0.004,-0.002 -0.0589,-0.0634 -0.1032,-0.11476 -0.125,-0.14258 -0.0737,-0.0939 -0.14424,-0.18711 -0.21484,-0.28125 l -0.002,-0.004 c -0.0641,-0.0896 -0.12708,-0.18346 -0.18555,-0.28125 l -0.002,-0.004 c -0.0589,-0.10365 -0.1178,-0.21582 -0.17774,-0.33789 a 0.21411258,0.21411258 0 0 0 0,-0.002 c -0.0618,-0.12451 -0.12443,-0.26294 -0.1875,-0.41797 a 0.21411258,0.21411258 0 0 0 -0.002,-0.002 c -0.0422,-0.10236 -0.0805,-0.21689 -0.11719,-0.34179 l -0.002,-0.004 c -0.0383,-0.1387 -0.0811,-0.28828 -0.13086,-0.44726 l -0.0644,-0.20704 a 0.21411258,0.21411258 0 0 0 -0.002,-0.002 c -0.0146,-0.0441 -0.0288,-0.0818 -0.0391,-0.10742 a 0.21411258,0.21411258 0 0 0 -0.002,-0.004 c -0.0169,-0.0402 -0.0395,-0.0807 -0.0684,-0.11914 a 0.21411258,0.21411258 0 0 0 -0.002,-0.002 c -0.11197,-0.1443 -0.28867,-0.2306 -0.47071,-0.24219 -0.1761,-0.0163 -0.35463,0.0253 -0.50976,0.12305 -0.0784,0.0493 -0.14468,0.10418 -0.19727,0.17773 -0.0749,0.10039 -0.0843,0.22413 -0.0664,0.32617 a 0.21411258,0.21411258 0 0 0 0.006,0.0234 c 0.10481,0.35291 0.18795,0.72737 0.24805,1.12305 0.0602,0.39768 0.10079,0.79821 0.1211,1.19727 0.0202,0.39944 0.0207,0.78291 0.002,1.15429 a 0.21411258,0.21411258 0 0 0 -0.002,0.002 c -0.0159,0.36919 -0.05,0.70423 -0.10352,1.00196 -0.0536,0.2988 -0.1218,0.54638 -0.20117,0.74414 -0.0787,0.18694 -0.16677,0.29101 -0.22852,0.33008 -0.0291,0.0185 -0.0405,0.0196 -0.0508,0.0195 -0.0199,-2.7e-4 -0.0395,-0.003 -0.0703,-0.0195 a 0.21411258,0.21411258 0 0 0 -0.002,0 c -0.0366,-0.0189 -0.0733,-0.0457 -0.11329,-0.084 -0.0489,-0.0475 -0.0962,-0.0997 -0.14062,-0.15625 -0.0667,-0.085 -0.12957,-0.17843 -0.1875,-0.27929 v -0.002 c -0.0603,-0.10693 -0.11524,-0.20549 -0.16406,-0.29883 l -0.002,-0.004 c -0.001,-0.002 -0.003,-0.005 -0.004,-0.008 -0.0426,-0.0942 -0.0779,-0.17991 -0.10742,-0.25 -0.033,-0.0781 -0.0576,-0.13585 -0.0586,-0.13868 a 0.21411258,0.21411258 0 0 0 -0.002,-0.006 c -0.11158,-0.27496 -0.21179,-0.56346 -0.30078,-0.86328 -0.0899,-0.30274 -0.17538,-0.61058 -0.25391,-0.92773 l 0.002,0.002 c -0.0763,-0.32249 -0.15416,-0.65319 -0.23242,-0.99023 -0.0788,-0.33904 -0.16322,-0.68303 -0.2539,-1.03125 a 0.21411258,0.21411258 0 0 0 -0.01,-0.0312 c -0.0685,-0.15842 -0.14741,-0.29627 -0.23828,-0.41211 -0.0806,-0.1024 -0.171,-0.18558 -0.27344,-0.24805 -5.2e-4,-3.4e-4 -0.001,3.5e-4 -0.002,0 -0.0973,-0.0639 -0.20331,-0.10786 -0.31445,-0.12305 -0.10535,-0.0194 -0.21463,-0.0155 -0.31836,0.0117 -0.095,0.0236 -0.18762,0.0631 -0.27344,0.11719 -0.10773,0.0677 -0.19577,0.1674 -0.24805,0.2832 a 0.21411258,0.21411258 0 0 0 -0.002,0.004 c -0.0513,0.12034 -0.0588,0.25296 -0.0352,0.37891 a 0.21411258,0.21411258 0 0 0 0.0176,0.0527 c 0.0363,0.0756 0.0693,0.14733 0.0996,0.21484 0.0287,0.0633 0.0596,0.13834 0.0918,0.22071 a 0.21411258,0.21411258 0 0 0 0.002,0.004 c 0.13729,0.33216 0.25933,0.67532 0.36523,1.03125 0.10531,0.35897 0.20464,0.71527 0.30079,1.06836 0.0967,0.35555 0.19542,0.70063 0.29296,1.03907 a 0.21411258,0.21411258 0 0 0 0,0.002 c 0.10223,0.34257 0.21594,0.66367 0.34375,0.96094 a 0.21411258,0.21411258 0 0 0 0.0293,0.0488 c 0.0914,0.20953 0.19075,0.41516 0.29883,0.61524 0.11941,0.22077 0.2533,0.4258 0.40039,0.61328 0.12831,0.16342 0.26564,0.30795 0.41406,0.43164 a 0.21411258,0.21411258 0 0 0 0.002,0.002 c 0.15561,0.12493 0.32477,0.21909 0.50195,0.27735 0.18246,0.0597 0.37408,0.0754 0.56641,0.0488 0.20578,-0.0273 0.41186,-0.10981 0.61523,-0.23829 0.18715,-0.11816 0.34421,-0.28224 0.4668,-0.48242 l 0.002,-0.004 c 0.11733,-0.18656 0.21348,-0.39219 0.28711,-0.61329 l 0.002,-0.004 c 0.0773,-0.21743 0.13718,-0.43969 0.17969,-0.66406 a 0.21411258,0.21411258 0 0 0 0,-0.002 c 0.039,-0.22041 0.0719,-0.4235 0.0977,-0.60742 0.0342,-0.25002 0.0545,-0.51144 0.0605,-0.7832 v -0.004 c 0.004,-0.11993 0.004,-0.26975 0.006,-0.40234 0.10651,0.10393 0.2084,0.21683 0.31836,0.31445 a 0.21411258,0.21411258 0 0 0 0.002,0.002 c 0.24186,0.20919 0.48818,0.38303 0.73829,0.51758 a 0.21411258,0.21411258 0 0 0 0.004,0 c 0.25671,0.13257 0.51542,0.21158 0.77539,0.23438 a 0.21411258,0.21411258 0 0 0 0.006,0 c 0.27595,0.0184 0.5494,-0.0549 0.79688,-0.21094 0.12661,-0.0798 0.236,-0.18844 0.32617,-0.31445 0.091,-0.11989 0.17078,-0.24795 0.23633,-0.38672 v -0.002 c 0.0677,-0.13903 0.12231,-0.28136 0.16211,-0.42578 0.0388,-0.14019 0.0653,-0.27117 0.0801,-0.39648 v -0.002 c 0.0446,-0.34037 0.0533,-0.71448 0.0312,-1.125 -0.0188,-0.4122 -0.0623,-0.83444 -0.13476,-1.26563 -0.0712,-0.43494 -0.1646,-0.8647 -0.28125,-1.29101 -0.11902,-0.4295 -0.25844,-0.82984 -0.41602,-1.20118 v -0.002 c -0.0753,-0.17968 -0.15767,-0.36944 -0.24804,-0.56836 -0.0909,-0.2001 -0.1857,-0.39412 -0.28125,-0.58203 v -0.002 c -0.0953,-0.1928 -0.19058,-0.37223 -0.28907,-0.54102 l -0.002,-0.002 c -0.0969,-0.17211 -0.1935,-0.32094 -0.29101,-0.44531 -0.13264,-0.16898 -0.26036,-0.29273 -0.42969,-0.34961 -6.6e-4,-2.3e-4 -0.001,2.2e-4 -0.002,0 -0.0944,-0.0326 -0.19298,-0.0326 -0.28125,-0.0137 z m 23.50782,1.9961 c 1.51946,0.44717 -5.21979,8.13229 -1.43555,3.47851 -0.0586,-0.15748 -0.11781,-0.31895 -0.17969,-0.48632 a 0.21411258,0.21411258 0 0 0 0,-0.002 c -0.0687,-0.18239 -0.13699,-0.36212 -0.20312,-0.54101 -0.0666,-0.17992 -0.12979,-0.34939 -0.1875,-0.50586 -0.0575,-0.1551 -0.10895,-0.29184 -0.1543,-0.41407 l -0.002,-0.006 c -0.0227,-0.068 -0.0369,-0.10875 -0.0547,-0.16016 0.14047,-0.16511 0.28495,-0.3221 0.44922,-0.45508 0.19829,-0.16056 0.40744,-0.30794 0.625,-0.44531 0.1195,-0.0754 0.25351,-0.15418 0.40039,-0.23047 a 0.21411258,0.21411258 0 0 0 0.004,-0.002 c 0.14261,-0.0791 0.27864,-0.13967 0.4082,-0.18164 0.12398,-0.0399 0.23312,-0.0545 0.33008,-0.0488 z m -3.91992,1.22265 c 0.007,0.003 0.0137,0.007 0.01,0.006 -0.004,-0.001 -0.006,-0.005 -0.01,-0.006 z m 0.29882,0.35938 c 0.001,0.005 0.001,0.009 0,0.006 -3.8e-4,-0.002 4.2e-4,-0.004 0,-0.006 z m -6.19922,2.91797 c -0.2039,0.32057 -0.51269,1.31611 -0.59375,0.57422 -0.0182,0.15383 0.002,0.31319 0.0527,0.47851 0.0481,0.1577 0.11409,0.32216 0.19531,0.49414 a 0.21411258,0.21411258 0 0 0 0.002,0.004 c 0.0769,0.15552 0.14589,0.30976 0.20899,0.46484 l 0.11914,0.33399 c 0.0855,0.24622 0.16753,0.4687 0.24805,0.66797 0.0757,0.18974 0.13686,0.35771 0.1875,0.5039 a 0.21411258,0.21411258 0 0 0 0.002,0.004 c 0.0512,0.13788 0.0833,0.25063 0.0957,0.33203 0.0102,0.0679 1.2e-4,0.0855 -0.002,0.0898 -0.4111,0.39779 -0.83033,0.80661 -1.25586,1.22461 -0.4332,0.42208 -0.86008,0.835 -1.2793,1.24024 -0.001,0.001 -0.003,0.003 -0.004,0.004 l -0.16602,0.125 -1.17969,-3.21093 a 0.21411258,0.21411258 0 0 0 -0.002,-0.006 c -0.0116,-0.029 -0.0282,-0.0605 -0.0449,-0.0957 l -0.008,-0.0195 c -0.0189,-0.0502 -0.0394,-0.0994 -0.0645,-0.14843 a 0.21411258,0.21411258 0 0 0 -0.002,-0.002 c -0.027,-0.0512 -0.0556,-0.10214 -0.0859,-0.1543 -0.0333,-0.0618 -0.0695,-0.12199 -0.11328,-0.17773 -0.0511,-0.0652 -0.10858,-0.11744 -0.16797,-0.16211 -0.0609,-0.0515 -0.13326,-0.0949 -0.21484,-0.11914 -0.0926,-0.0296 -0.18606,-0.0316 -0.27344,-0.0176 -0.0973,0.0132 -0.19224,0.049 -0.28125,0.10547 a 0.21411258,0.21411258 0 0 0 -0.002,0.002 l -0.0781,0.0508 c -0.0527,0.0337 -0.10254,0.0794 -0.14062,0.13476 -0.0303,0.0414 -0.0531,0.0865 -0.0664,0.13867 -0.0117,0.0388 -0.0226,0.0835 -0.0234,0.13282 a 0.21411258,0.21411258 0 0 0 0.0137,0.0762 l 2.32422,6.56836 c 0.0118,0.0335 0.0265,0.0791 0.0469,0.13867 a 0.21411258,0.21411258 0 0 0 0.004,0.008 c 0.0235,0.0614 0.049,0.12463 0.0762,0.18945 0.0262,0.063 0.0526,0.12463 0.0801,0.18555 a 0.21411258,0.21411258 0 0 0 0.006,0.0137 c 0.0316,0.0588 0.0612,0.10935 0.0996,0.15821 a 0.21411258,0.21411258 0 0 0 0.0391,0.0371 c 0.0383,0.0444 0.0757,0.0883 0.11718,0.12695 a 0.21411258,0.21411258 0 0 0 0.008,0.008 c 0.0695,0.0587 0.147,0.10447 0.23047,0.13672 0.0882,0.036 0.18132,0.0544 0.27343,0.0508 a 0.21411258,0.21411258 0 0 0 0.002,0 c 0.10756,-0.005 0.21493,-0.0409 0.31054,-0.10156 0.0676,-0.0428 0.12231,-0.1066 0.16211,-0.17578 0.0386,-0.0631 0.0672,-0.13106 0.0859,-0.20117 2.2e-4,-7.1e-4 0.002,-0.001 0.002,-0.002 0.0193,-0.0643 0.031,-0.13146 0.0332,-0.20117 v -0.002 c 0.005,-0.0756 8.3e-4,-0.15297 -0.0312,-0.23047 a 0.21411258,0.21411258 0 0 0 0,-0.002 c -0.0531,-0.12609 -0.10959,-0.26047 -0.16992,-0.40235 l -0.002,-0.004 c -0.0559,-0.1404 -0.10968,-0.28346 -0.16211,-0.43164 -0.0543,-0.15036 -0.10453,-0.29967 -0.14843,-0.44727 v -0.002 c -0.0324,-0.1147 -0.054,-0.22089 -0.0742,-0.32618 l 0.95507,-1.01562 c 0.14036,-0.1494 0.27915,-0.29928 0.41797,-0.44727 0.14218,-0.15013 0.2756,-0.28949 0.39844,-0.41992 0.12188,-0.12935 0.23003,-0.24372 0.32422,-0.34375 0.094,-0.1 0.1618,-0.17374 0.21094,-0.22851 l 0.004,-0.004 c 8.6e-4,-9.6e-4 0.003,-0.003 0.004,-0.004 0.10324,-0.10299 0.1938,-0.18958 0.26953,-0.25586 a 0.21411258,0.21411258 0 0 0 0.004,-0.002 c 0.0185,-0.0168 0.0364,-0.0257 0.0547,-0.041 0.13407,0.27947 0.26721,0.55663 0.38868,0.79882 a 0.21411258,0.21411258 0 0 0 0,0.002 c 0.068,0.13383 0.13547,0.26522 0.20117,0.39648 0.0655,0.13308 0.12894,0.25856 0.1914,0.37305 0.0602,0.1106 0.1145,0.20962 0.16016,0.29297 a 0.21411258,0.21411258 0 0 0 0.006,0.01 c 0.0502,0.0813 0.0877,0.13635 0.12305,0.18164 a 0.21411258,0.21411258 0 0 0 0,0.002 c 0.0356,0.0454 0.0776,0.0855 0.12695,0.1289 a 0.21411258,0.21411258 0 0 0 0.002,0.004 c 0.0594,0.0504 0.12668,0.0918 0.20117,0.125 a 0.21411258,0.21411258 0 0 0 0.0117,0.006 c 0.0859,0.0323 0.17845,0.0466 0.26954,0.0469 0.11835,4.3e-4 0.23185,-0.0403 0.33203,-0.10351 0.0671,-0.0425 0.13147,-0.0973 0.18945,-0.16406 a 0.21411258,0.21411258 0 0 0 0.002,-0.002 c 0.0559,-0.0663 0.099,-0.14 0.13281,-0.2168 0.0391,-0.0837 0.064,-0.17082 0.0723,-0.25976 v -0.002 c 0.0101,-0.10243 -0.006,-0.20645 -0.0449,-0.30079 a 0.21411258,0.21411258 0 0 0 0,-0.002 c -0.0742,-0.17448 -0.15824,-0.34385 -0.25,-0.50976 -0.0869,-0.16356 -0.17681,-0.32745 -0.26953,-0.48829 l -0.002,-0.004 c -0.0875,-0.15807 -0.17318,-0.31763 -0.25976,-0.48047 l -0.002,-0.002 c -0.0825,-0.16231 -0.16075,-0.32765 -0.23047,-0.4961 v -0.002 l -0.0996,-0.24219 0.004,0.004 c -0.0245,-0.0648 -0.0528,-0.12361 -0.082,-0.17969 l -0.004,-0.008 c -0.009,-0.0184 -0.0112,-0.0266 -0.0176,-0.041 0.0481,-0.13887 0.0925,-0.2753 0.10351,-0.40039 v -0.002 c 0.0157,-0.18667 -0.0527,-0.37169 -0.17187,-0.52344 -0.0536,-0.0683 -0.11491,-0.12728 -0.1836,-0.17578 l -0.002,-0.002 c -0.0368,-0.027 -0.0665,-0.0557 -0.0918,-0.0879 -0.0193,-0.0246 -0.0551,-0.0866 -0.0918,-0.17578 -0.0407,-0.0969 -0.0806,-0.2041 -0.11914,-0.32032 -0.0392,-0.1261 -0.0795,-0.25577 -0.11914,-0.39453 -0.0404,-0.14159 -0.0824,-0.27954 -0.125,-0.41211 v -0.002 c -0.11238,-0.35037 -0.20975,-0.64755 -0.29297,-0.89063 -0.0829,-0.2536 -0.15205,-0.42862 -0.25391,-0.55859 -0.13035,-0.16638 -0.31075,-0.27973 -0.51367,-0.32031 -0.10664,-0.0224 -0.217,-0.0221 -0.32227,0 z" transform="matrix(0.26458333,0,0,0.26458333,0,15.875)" />
    </g>
  </g>
</svg>
