<svg xmlns="http://www.w3.org/2000/svg" viewBox="0 0 210 100"><path d="M83.24 16.0606a30.1 30.1 0 0 0-4.553.3461h-.0031c-6.1695.945-12.6532 3.912-18.5942 10.0012-5.0821 5.209-8.255 12.3942-10.216 18.281-.9806 2.9433-1.6571 5.562-2.0886 7.4531-.2158.9456-.368 1.7172-.4714 2.2438-.0505.2554-.085.4484-.1105.5818l-6.7013-.0986c-1.2505-2.1654-2.6366-3.8994-4.5352-5.12-1.9608-1.2604-4.5019-1.8752-7.7008-2.1541-.0046-.0004-.0077.0003-.0122 0a1.16 1.16 0 0 0-.4297-.1224 1 1 0 0 0-.0447 0l.003.003s-6.1768-.3333-10.1176 3.6073c-1.3152 1.3153-2.2446 2.8165-2.912 4.2965H8.0692a1.2 1.2 0 0 0-.1252 0 1.1579 1.1579 0 0 0 .1252 2.3123h5.839c-.5019 1.7988-.6076 3.3126-.3908 4.4755-.0347 1.414.6056 2.8504 1.814 3.9146.6199.5456 1.4518.9747 2.4139.9458s1.9246-.5386 2.739-1.4202a1.2 1.2 0 0 0 .0895-.1015c.4687-.6391.1746-.839.4863-1.5336l.0448.9011c-.0077.0623-.0316.1516-.0329.2029-.0045.2055.0061.3883.0448.6087.0767.4405.2427.989.552 1.5574.6185 1.1368 2.0111 2.3518 4.0936 2.3124a1.16 1.16 0 0 0 .3162-.0598c1.1841-.355 2.1203-1.0621 2.6704-1.9841.1013-.1697.06-.3855.1372-.564.1248.3454.24.7004.4744 1.107.6349 1.1013 1.9426 2.3767 3.822 2.2646 1.0173-.052 1.9016-.4362 2.4795-1.0592.5801-.6253.8275-1.3876.9369-2.0975.0224-.145-.0138-.2047 0-.349.1388.0911.1113.257.3043.3251.4066.2085 1.0142.552 1.8827.552.8918 0 1.9114-.6056 2.5719-1.644.475-.5508.6967-1.1821.7907-1.8737.1035-.7621.0993-1.6213.0209-2.548-.117-1.3838-.402-2.9255-.7996-4.4397l33.065.4923c-.2592 7.239-.2542 16.9891 1.1367 24.5078.5383 2.9096 1.4947 5.447 3.2611 7.2622s4.3334 2.7604 7.6114 2.572c3.7234-.2143 6.3884-1.6044 8.0946-3.5984S97 83.926 97.2807 81.54c.5615-4.7719-.722-9.303-.722-9.303l-2.566-14.7185 30.9227.358c-.402 1.5252-.6907 3.0787-.8086 4.4726-.0783.9267-.0796 1.7859.0239 2.548.0951.7003.3222 1.3393.8115 1.8946.6614 1.0214 1.6637 1.6232 2.548 1.6232.869-.0001 1.488-.3442 1.8947-.552.1867-.0665.1565-.2285.2924-.3163.0137.1398-.0214.1998 0 .3402.1094.7098.3567 1.4721.9369 2.0975.5779.623 1.474 1.0097 2.4913 1.0592 1.8794.112 3.1782-1.1664 3.8131-2.2676.2393-.4152.3579-.7773.4834-1.1278.0793.1853.0325.4118.1372.5877.5501.922 1.4862 1.629 2.6704 1.9842a1.16 1.16 0 0 0 .3073.0566c2.0824.0405 3.484-1.1726 4.1025-2.3093a5.1 5.1 0 0 0 .543-1.5575c.038-.22.061-.4033.0567-.6087-.0014-.0652-.0214-.1706-.0357-.2595l.0357-.8563c.3142.7046.0199.9062.4953 1.5544a1.2 1.2 0 0 0 .0776.0896c.8143.8814 1.7799 1.3943 2.742 1.4232s1.794-.4029 2.4138-.9488c1.2084-1.0642 1.85-2.4976 1.814-3.9116.2317-1.2425.1137-2.8744-.4833-4.8395-.0159-.0524-.0402-.1085-.0567-.1611l6.5163-.0092a1.1562 1.1562 0 0 0 0-2.3123l-7.465.0122c-.6454-1.3042-1.4894-2.6053-2.6496-3.7654-3.9408-3.9408-10.1146-3.6192-10.1146-3.6192a1 1 0 0 0-.0448 0v-.003c-.0107.0007-.0137.0122-.0238.0122a1.16 1.16 0 0 0-.4267.1133c-3.1924.2795-5.7337.8954-7.6918 2.1543-1.8925 1.2165-3.276 2.9434-4.5233 5.099l-7.125-.0835c-1.176-6.6425-2.6144-13.6558-5.8748-20.104-3.3484-6.6221-8.6415-12.6224-17.344-16.8248a1 1 0 0 0-.0567-.0239c-3.5167-1.4972-7.6895-2.4777-12.1584-2.4764zm.0388 2.2706c4.118.0152 7.9558.9445 11.2067 2.3272.003.0014.0091-.0013.0122 0 8.2326 3.9884 13.081 9.5237 16.237 15.7657 3.013 5.959 4.436 12.5796 5.5915 19.0387l-22.7385-.2625-1.2472-7.1608a1.156 1.156 0 1 0-2.2765.3938l1.3247 7.5935a1.157 1.157 0 0 0 .173.9935l2.742 15.727a1.2 1.2 0 0 0 .0329.1014s1.1376 4.2323.6445 8.4228c-.2466 2.0953-.889 4.1312-2.187 5.6481s-3.2532 2.6127-6.4865 2.7987c-2.7958.161-4.5377-.5543-5.8301-1.8827-1.2925-1.3281-2.1332-3.4187-2.6256-6.0807-2.3745-12.8351-.543-33.796-.543-33.796a1.155 1.155 0 0 0-1.1816-1.274h-.003a1.155 1.155 0 0 0-1.116 1.0592s-.2773 3.0873-.4863 7.6233l-24.9733-.367c.0123-.065.0184-.099.0329-.173.1005-.511.253-1.2484.4625-2.1662.4188-1.8357 1.0665-4.3853 2.017-7.2384 1.9008-5.7062 5.0168-12.613 9.6879-17.4007 7.022-7.1972 14.6666-9.7151 21.53-9.691zM27.6783 49.782l.003.003c3.2325.2315 5.3947.8518 7.0355 1.9066 1.6196 1.0411 2.814 2.5734 4.0369 4.7917.5573 1.7868.9815 3.7576 1.1159 5.3467.0687.813.0576 1.5216-.0122 2.029-.069.5075-.2373.767-.191.722a1.16 1.16 0 0 0-.191.2476c-.3517.6078-.4687.552-.6892.552-.2204 0-.6077-.141-.9696-.3252a1.16 1.16 0 0 0-.1671-.0686c.4318.1437.0427-.0167-.194-.4953-.2367-.481-.4907-1.1687-.71-1.8499-.4388-1.3623-.743-2.6942-.743-2.6942h-.0122v-.0358a1.1549 1.1549 0 0 0-2.2437.543s.0106.033.0122.033v.0121c.003.0123.487 1.9638.4952 3.2492.0062.994.202 2.2025.0686 3.0673-.0666.4324-.2026.7161-.352.8771s-.3434.2898-.913.3163l-.0123.0122c-.8482.052-1.2738-.4117-1.6798-1.1159-.203-.3522-.3483-.7477-.4386-1.0383-.045-.1454-.0838-.2598-.1014-.3371-.0046-.0231-.0092-.0304-.0122-.0477v-.0331a1 1 0 0 0-.0122-.0598l-1.1607-6.2686a1.1549 1.1549 0 0 0-2.2795.1342s-.2029 3.1827-.2029 5.1886c0 .8354-.1383 1.4544-.3938 1.8827-.2233.3742-.6168.6217-1.1846.8354-1.0787-.046-1.5863-.4598-1.8946-1.0263-.1653-.3037-.256-.6384-.2924-.8474-.0091-.0461-.0091-.0446-.0122-.0776a1.16 1.16 0 0 0 .0357-.2924l-.3043-7.3756v-.0895a1.1562 1.1562 0 0 0-2.3123-.0122s-.3096 4.1667-2.0767 6.6416c-.4693.4769-.8193.6227-1.0472.6295-.243.0061-.5123-.0962-.8235-.37-.6224-.5479-1.098-1.8677-1.083-2.1541a1.16 1.16 0 0 0-.021-.3163c-.1065-.4792-.0744-2.1094.4595-3.8668s1.5213-3.7204 3.091-5.29c2.995-2.995 8.348-2.9333 8.3782-2.933zm110.9206.725c.0301-.0003 5.3952-.062 8.39 2.933 1.0712 1.071 1.8478 2.3246 2.4139 3.5714a1.16 1.16 0 0 0 .1969.4177c.1821.4391.3397.8771.4684 1.3009.534 1.7574.569 3.3878.4625 3.8668a1.16 1.16 0 0 0-.0239.3163c.0153.2863-.4607 1.6061-1.083 2.1542-.3112.2742-.5805.3774-.8235.37-.2307-.0062-.5684-.1489-1.0473-.6415-1.7596-2.4762-2.0647-6.6208-2.0647-6.6208a1.1559 1.1559 0 0 0-2.3093 0v.0895l-.3073 7.3756a1.16 1.16 0 0 0 .0238.2835c-.003.0288-.001.034-.0122.0895-.0364.209-.1271.5407-.2924.8444-.3069.564-.8152.9776-1.8827 1.0264-.5672-.2137-.9614-.4495-1.1845-.8235-.2556-.4284-.4058-1.0593-.4058-1.8947 0-2.006-.191-5.1856-.191-5.1856a1.1549 1.1549 0 0 0-2.2914-.1342l-1.1607 6.2686a1 1 0 0 0 0 .0567c-.0006.003-.0091.0243-.0122.0358-.0008.006.0011.0122 0 .0238-.0015.0122-.0091.0091-.0122.021a4 4 0 0 1-.0895.34c-.0903.2905-.2356.6863-.4386 1.0384-.406.7041-.8316 1.169-1.6798 1.1159h-.0239c-.5697-.029-.7636-.1677-.913-.3282-.1494-.1611-.2735-.448-.34-.8802-.1333-.8648.0622-2.0733.0685-3.0672.0076-1.2854.4831-3.233.4863-3.2463v-.0122l.0092-.0357a1.1549 1.1549 0 0 0-2.2437-.54v.0357h-.0092s-.3072 1.332-.7459 2.6942c-.2193.6811-.4734 1.3688-.7101 1.8499-.2367.481-.6229.6394-.191.4953a1.16 1.16 0 0 0-.158.0686c-.362.1842-.7613.3252-.9817.3252s-.3255.0584-.6773-.552a1.16 1.16 0 0 0-.191-.2476c.0462.0461-.134-.2146-.2029-.722-.0688-.5076-.0687-1.216 0-2.029.1343-1.589.5467-3.56 1.104-5.3467 1.2229-2.2183 2.4173-3.7506 4.0369-4.7918 1.6408-1.0548 3.806-1.6751 7.0385-1.9065z"/><path d="M78.175 38.5583c0 .8682-.179 1.361-.5664 1.8726-.3002.3967-.7528.9172-1.172.9172-.419 0-.8377-.2385-1.138-.6347-.3873-.5116-.6002-1.287-.6002-2.1551 0-.7149.3721-1.3266.6476-1.8202.3183-.5705.576-.9696 1.0907-.9696.96 0 1.7383 1.249 1.7383 2.7898m13.5798-.3985c0 1.5408-.5853 2.647-1.5454 2.647-.3858 0-.8852-.3297-1.1736-.671-.4292-.508-.7576-1.0542-.7576-1.9757 0-.6724.0116-1.4907.2583-1.9723.3189-.6226.9387-.8175 1.48-.8175.587 0 1.106.467 1.4208 1.182.2.4543.3175 1.009.3175 1.6078zM146.382 7.6592c-3.7434 1.99-3.2112 2.3698-4.735 3.7326-.0171.0153-.0258.0192-.0417.0328l-.0716-.0567a.33.33 0 0 0-.0598-.0388c-.1765-.0881-.3155-.0727-.4893-.0597h-.003c-.2305.0122-.4554.1018-.6863.2477-.1695.1069-.2865.2802-.3461.4684-.031.0964-.036.209-.0477.3163-.0519-.0384-.0971-.0868-.1551-.1105-.1514-.0707-.311-.0751-.4565-.0507-.1573.0202-.318.071-.4953.1492-.1824.0802-.391.1925-.6295.3432a10 10 0 0 0-.6923.4803c-.2237.1683-.451.3567-.6802.561a14.4 14.4 0 0 0-.6982.6474c-.2388.236-.4913.4975-.7608.7847a.3.3 0 0 0-.021.0239c-.0227.0293-.081.0945-.164.176l-.0031.003a7 7 0 0 1-.2805.2686l-.006.006a21 21 0 0 1-.3044.2895 2 2 0 0 1-.0417.0357l-.0717-.0597a.33.33 0 0 0-.0597-.0388c-.1687-.0842-.311-.076-.4893-.0626h-.003c-.2335.0122-.4552.1068-.6833.2506-.1648.1037-.2889.274-.3491.4625-.0527.1629-.0743.3364-.0746.5191v.0061c-.003.1727.0077.3533.0329.54l.003.0093c.0294.1715.0605.3373.0924.4952v.0061c.0592.2618.1276.52.206.7758.0777.255.1778.5521.3013.8921.1196.3339.2677.73.4445 1.1935v.003c.1774.4529.3931 1.0155.6445 1.6858.177.4718.3346.9696.4923 1.468-.041.0353-.0848.0676-.1193.1104l-.003.003c-.0016.0016-.0046.0031-.0062.0062-.0424.0502-.0834.1032-.1312.1611a.3.3 0 0 0-.0153.0179c-.2871.4003-.5153.7105-.6802.9368a51 51 0 0 0-.3998.555c-.097.132-.1766.2459-.2417.3371l-.003.0062a25 25 0 0 1-.2298.3252v.003c-.171.2419-.364.5055-.5759.7937a21 21 0 0 1-.6444.8145 16.5 16.5 0 0 1-.6654.731c-.204.2026-.3937.3484-.5639.4595-.0727-.095-.1633-.2437-.2626-.4565a13.5 13.5 0 0 1-.3162-.734v-.003l-.2089-.5222v-.003a27.4 27.4 0 0 1-.558-1.5366 645 645 0 0 1-.525-1.6082v-.003a171 171 0 0 0-.5162-1.5963c-.1743-.5302-.3607-1.0326-.561-1.5097l-.006-.0123a3.4 3.4 0 0 0-.1105-.2178v-.003c-.049-.0876-.111-.1682-.173-.2477v-.003a2 2 0 0 0-.3134-.3193 1.5 1.5 0 0 0-.4117-.2387 1.08 1.08 0 0 0-.4863-.0835h-.0061c-.1817.0107-.3598.0711-.5162.17-.2584.1636-.4486.416-.5281.7071v.0062c-.073.288-.04.5966.0805.889a.33.33 0 0 0 .0357.0658c.1342.187.3.49.4804.895v.0031c.1865.4038.3847.8826.5878 1.4411v.003c.2089.558.4262 1.1772.6504 1.85.2251.6755.459 1.377.7012 2.1124l.4416 1.3635c.0322.1108.0767.2225.1312.3402a8 8 0 0 0 .167.3431c.0574.1141.1139.2271.1761.3342l.0061.0091c.0665.1059.1325.1991.194.2775.1329.1697.2926.3086.4773.4147h.0031c.2037.1157.4405.1672.6803.1522.1944-.0138.3542-.0122.4624-.003h.0092c.151.0091.2939.0122.4326.003h.0092c.1476-.0138.2906-.0475.4326-.0926h.003c.1683-.0553.3475-.1454.552-.2745h.0031c.188-.1188.3727-.2833.5729-.4923l.003-.003c.1957-.21.3953-.438.5968-.6833.2-.2439.3972-.4935.5907-.746.1934-.2493.3662-.4713.5252-.6742l.006-.0061c.0384-.046.095-.1158.1761-.2178l.003-.0062a51 51 0 0 1 .2865-.373 35 35 0 0 1 .3431-.4355l.0061-.0061c.1215-.1615.2346-.3189.3461-.4655s.2174-.281.3133-.4058l.003-.003c.0693-.0872.1145-.148.1642-.2119.0322.0891.0568.1676.0955.2596.0748.1817.175.3384.2804.4893a.33.33 0 0 0 .0597.1224c.2671.3389.6363.5483 1.0354.543h.003c.3853-.006.7794-.1549 1.1905-.4147.3618-.2284.738-.5175 1.1308-.8653.3969-.3507.7741-.748 1.1338-1.1875.142-.1742.301-.3728.4774-.5937l.003-.003c.1754-.2286.3497-.468.5252-.7161l.0061-.003q.2585-.3797.4923-.7639a6.45 6.45 0 0 0 .3998-.7638c.1068-.2442.1783-.4787.2148-.7071.051.1277.0868.2575.1403.3848.076.1848.1775.3462.2864.5013.0013.0015.0015.0046.003.0061a.33.33 0 0 0 .0538.1015c.2663.3377.6333.5482 1.0324.543h.003c.3853-.0061.7794-.1549 1.1905-.4147.3617-.2285.738-.5175 1.1308-.8653.3969-.3507.774-.748 1.1338-1.1875.142-.1742.301-.3728.4774-.5938l.003-.003c.1753-.2285.3496-.468.5252-.7161l.006-.003q.2586-.3797.4924-.7639a6.5 6.5 0 0 0 .3998-.7638c.11-.2513.1854-.4931.2208-.728.0376-.2504.0092-.501-.1105-.7131-.0762-.1344-.2268-.241-.3819-.2715-.1106-.0283-.2326-.0336-.349-.0061a1.23 1.23 0 0 0-.2984.0895h-.003a2 2 0 0 0-.2179.1164l-.006.0061c-.258.1705-.475.3665-.6446.5937-.1532.2009-.296.4253-.4326.6654-.13.2238-.2713.4641-.4177.725-.1337.2377-.3153.4992-.546.7818a8.8 8.8 0 0 1-.7817.8384c-.275.2604-.5258.4584-.74.5937h.0061c-.0178.0107-.0418.0263-.0657.0417-.0076-.0076-.003-.003-.0268-.0328-.0182-.023-.0922-.1415-.182-.3163l-.0031-.0092a16 16 0 0 1-.2745-.6116v-.003a14 14 0 0 1-.2685-.6624h-.003c-.054-.1406-.0714-.2173-.0986-.3074.077-.078.1662-.1702.2178-.2207l.003-.0031c.0868-.0888.1659-.169.2388-.2476a.3.3 0 0 0 .0122-.0123c.0756-.0895.1482-.1859.2208-.2834l.003-.0061c.0782-.101.1874-.24.3252-.4237l.0031-.0061c.1326-.1845.3124-.4248.534-.7191v-.003c.22-.2972.5095-.6794.8624-1.1428.0592-.0698.1494-.1809.2804-.3342.1316-.153.2711-.3118.4147-.4803v-.003a25 25 0 0 0 .4118-.4835l.003-.003c.1271-.1587.2101-.2682.2686-.364v-.003c.1378-.2328.2333-.4712.2745-.7132.0495-.2711-.0187-.5606-.188-.7787-.1062-.1398-.2789-.218-.4446-.2327-.2387-.0283-.4222.0655-.6206.191-.161.1018-.329.2604-.546.4893l-.003.003-.003.003c-.2195.2241-.46.4856-.7251.7818-.2612.2946-.537.6076-.8235.9369a199 199 0 0 1-.7966.919 44 44 0 0 1-.6505.7369c-.0424.0454-.0406.0377-.0776.0745a4 4 0 0 0-.0298-.0864l-.006-.0153a52 52 0 0 1-.1194-.3968c-.0452-.1531-.0933-.3128-.1431-.4804a23 23 0 0 0-.1432-.4684l-.003-.0092c-.043-.1457-.0778-.275-.1074-.3849l-.003-.0061a3.6 3.6 0 0 1-.0598-.2268l-.003-.0152c-.0573-.237-.0706-.4674-.0389-.7012.0294-.212.1342-.4478.3312-.7101.0007-.001-.0007-.0015 0-.003.0721-.0833.1599-.1843.2745-.3104l.0061-.0091c.1163-.1355.2473-.2781.3909-.4327l.0061-.006c.146-.163.2927-.3269.4386-.4894l.003-.003c.148-.163.2866-.3107.4148-.4416l.006-.0061c.1284-.1385.236-.2532.3253-.3491l.0092-.0092c.0875-.1008.1696-.1787.1372-.1521a.3.3 0 0 0 .0178-.018c.0472-.0453.1467-.1348.2924-.2655.1494-.1326.305-.2706.4714-.4147l.0062-.0061c.162-.1482.3143-.282.4535-.3998l.006-.0061c.1273-.1132.1959-.1762.2537-.2327l.0357-.0329c.1638-.1262.3032-.2499.4088-.3849l.003-.003c.1058-.1359.186-.2709.2358-.4148v-.003c.0441-.1306.0647-.2705.0417-.4118v-.003c-.018-.1193-.0598-.2456-.1432-.3521l-.003-.003c-.08-.099-.1854-.164-.2954-.209-.1454-.068-.3059-.0787-.4565-.0537zm27.8406 4.371c-.2327-.0006-.4638.0444-.6922.1194a2.8 2.8 0 0 0-.6713.3073 5.96 5.96 0 0 0-.9458.743c-.2983.2807-.56.5994-.7847.9517h-.003c-.156.2462-.31.5245-.4685.8325-.1584.3033-.3086.6307-.4505.9786-.141.3421-.2684.6934-.379 1.0533v.003a9.8 9.8 0 0 0-.2536 1.0682v.003c-.0586.3555-.0863.7036-.0745 1.0413.0137.3368.0757.6514.185.9369a.3.3 0 0 0 .006.0153 8 8 0 0 0 .1463.3103.3.3 0 0 0 .0091.0178c.062.1085.1358.2223.2238.3342.0897.1144.191.2098.2984.2894l.003.003c.0932.067.1833.1269.2715.1761l.0061.003c.2595.1374.5272.2264.7997.2626.2594.0346.513.0352.7608 0l.003-.003c.2361-.0353.4635-.089.6803-.17l.0092-.0031a3.65 3.65 0 0 0 .5788-.2954c.1072-.0678.2312-.1508.373-.2447l.003-.003a25 25 0 0 1 .4297-.2894l.0091-.0061c.1421-.1024.2852-.2017.4267-.2954l.0092-.0061a7 7 0 0 1 .358-.2447h.003c.1748-.1106.3464-.2063.5192-.2834l.0061-.003c.1656-.0777.3211-.1292.4655-.1582h.003c.1438-.0313.2634-.0318.3521-.0153h.0061c.0723.0122.0927.027.1253.0686.022.028.056.0909.0864.182.0252.0836.0506.2206.0657.3998v.003c.0158.1651.0184.38.0123.6356-.0107.2436-.0385.5306-.0865.8653v.006c-.037.2962-.1047.5818-.2089.8564a4.6 4.6 0 0 1-.4028.7877 4.1 4.1 0 0 1-.549.6713c-.2068.2046-.4343.3807-.6773.534-.2057.1302-.4119.234-.6206.3104a6.7 6.7 0 0 1-.6474.1999c-.221.0504-.4391.093-.6564.1342-.227.041-.4468.092-.6534.1462a.327.327 0 0 0-.203.1641c-.0396.0398-.0882.0657-.1163.1224-.0552.1112-.0593.2554-.0239.367v.0092c.04.1153.102.2267.182.3282a1.6 1.6 0 0 0 .552.4475.3.3 0 0 0 .0153.0061c.2066.091.427.1506.6594.185l.006.003c.2304.0298.4697.0347.7192.018h.0122a4.37 4.37 0 0 0 .74-.1373c.2477-.065.484-.1483.71-.2446.228-.0972.4416-.2066.6385-.3312.4446-.281.831-.616 1.1607-1.0025.3287-.3826.6058-.7925.8265-1.2323a6.64 6.64 0 0 0 .5072-1.3665v-.003a7.8 7.8 0 0 0 .2327-1.4202c.0173-.2585.0275-.5135.0269-.7669v-.006a6.2 6.2 0 0 0-.0597-.761l-.0031-.003c-.0388-.2557-.0984-.5004-.182-.728-.0859-.2337-.2037-.4487-.355-.6415-.2402-.3057-.5372-.5396-.8773-.6862h-.003c-.3235-.1468-.669-.23-1.0294-.2387-.354-.0092-.715.0449-1.0711.1551a4.06 4.06 0 0 0-1.0174.4625 9 9 0 0 0-.4356.2954q-.2326.1538-.4774.3282a29 29 0 0 1-.4685.3163c-.156.103-.3009.1931-.4296.2745-.1788.111-.3433.1643-.4983.173-.1422.0061-.1816-.017-.2387-.0895-.0428-.0547-.0793-.1326-.1045-.2387v-.0061c-.0185-.1022-.0172-.2328.0153-.3968.0689-.3589.1627-.7444.2834-1.1577v-.003a7.83 7.83 0 0 1 .4655-1.1905h.003c.1894-.3894.4115-.7502.6654-1.0801v-.003c.2475-.3261.5276-.5843.8444-.7848.096-.0597.1908-.1.2805-.1252l.0091-.0031a5.4 5.4 0 0 1 .3461-.0984h.0061a5.7 5.7 0 0 0 .3939-.1193l.003-.003a2.3 2.3 0 0 0 .4506-.2208c.081-.0515.1507-.1224.2058-.203.069-.095.1051-.2027.1194-.3013a.3.3 0 0 0 .003-.0179c.0107-.112-.0046-.2287-.0419-.343-.0409-.126-.1093-.2404-.1969-.3521-.1507-.1921-.3418-.3442-.5639-.4386a1.69 1.69 0 0 0-.6862-.1403zm-34.2375 1.4263c.0061.0308.0179.0965.0179.0985 2.0754 6.3356.58 1.4349 2.5928 7.4472-.0611-.0405-.0976-.1097-.17-.1223a.83.83 0 0 0-.3283 0h-.0061a1.23 1.23 0 0 0-.3043.0925h-.003a1.9 1.9 0 0 0-.2179.1164l-.0061.0062c-.2579.1705-.475.3664-.6445.5937a5.9 5.9 0 0 0-.4356.6624c-.131.2256-.2692.4657-.4147.725-.1343.2386-.316.503-.546.7847a8.8 8.8 0 0 1-.7817.8384c-.275.2605-.5258.4585-.74.5938-.0157.0091-.037.027-.0597.0417-.0077-.0077-.003-.003-.027-.0329-.0152-.0192-.0913-.143-.182-.3192l-.003-.0092a17 17 0 0 1-.2745-.6116v-.003a14 14 0 0 1-.2685-.6595h-.003c-.054-.1404-.0714-.2172-.0986-.3073.077-.078.1662-.1702.2178-.2208l.003-.003c.0894-.0914.1689-.1753.2388-.2507a.3.3 0 0 0 .0122-.0122 6 6 0 0 0 .2208-.2805l.003-.006c.0787-.1013.1875-.2402.3253-.4237l.003-.0061c.1326-.1846.3124-.4248.534-.7191v-.003c.22-.2972.5096-.6794.8624-1.1428.0592-.0698.1494-.1809.2804-.3342.1316-.153.2711-.3118.4148-.4803v-.0031c.1504-.1731.2889-.3343.4117-.4834l.003-.003c.1272-.1587.2102-.2683.2686-.364v-.003c.1378-.2328.2334-.4712.2745-.7132.0496-.2717-.0174-.562-.188-.7817-.1094-.1439-.2858-.2155-.4446-.2297-.233-.0277-.42.0614-.6206.188-.165.104-.3306.2645-.546.4922-.0008.001-.0015.0016-.003.003l-.003.0031c-.2195.2241-.4599.4856-.7251.7818-.2612.2946-.537.6076-.8235.9368-.2806.3253-.5465.6327-.7966.919a44 44 0 0 1-.6505.737c-.0424.0453-.0406.0377-.0776.0745a6 6 0 0 0-.0298-.0865l-.006-.0152a52 52 0 0 1-.1194-.3969c-.0454-.1533-.0935-.313-.1433-.4803a23 23 0 0 0-.1431-.4685l-.003-.0091a15 15 0 0 1-.1075-.382l-.003-.0091a3.4 3.4 0 0 1-.0597-.2297l-.0031-.0153a1.85 1.85 0 0 1-.0358-.6982c.0298-.2144.1326-.4527.3283-.7131.0006-.0009-.0007-.0015 0-.003.068-.0783.1596-.1778.2774-.3074l.0062-.0091c.119-.139.247-.2845.3878-.4357l.0061-.006c.1447-.1615.2915-.3225.4386-.4864l.0031-.003c.1483-.1631.2866-.3107.4147-.4416l.0061-.0061c.13-.1401.2382-.2587.3252-.3521l.0092-.0092c.0839-.0965.1528-.1651.1372-.1521a.3.3 0 0 0 .0179-.0153c.0507-.0489.1475-.1387.2924-.2685.1478-.1313.3065-.2694.4744-.4148l.006-.006c.162-.1483.3111-.2789.4506-.397l.0061-.006c.1273-.1132.1957-.1761.2536-.2327l.0358-.0329c.1657-.1277.3045-.2571.4087-.3908h.0031c.0332-.0425.0463-.0883.0746-.1313zm63.5878 3.4043c-3.5443 1.8644-3.0258 2.2311-4.559 3.5953l-.0567-.0447a.33.33 0 0 0-.0566-.0358c-.1695-.0875-.3103-.0793-.4834-.0657h-.003c-.2268.0123-.4393.1027-.6594.2417-.1641.1037-.2804.2731-.3372.4535h.003c-.0485.1523-.074.3185-.0745.4983v.0061c-.003.1678.0092.3376.0329.5132l.003.0092c.027.1614.0549.3222.0865.4774v.006c.0573.2525.1257.5002.1999.743.0748.2454.1717.5263.2894.8504.1136.3189.254.699.4237 1.1427v.003c.1692.4327.3742.9702.6146 1.6112.238.6348.4569 1.2888.6594 1.9603.148.4821.3372.9583.5221 1.4351-.3901-.1811-.78-.3642-1.1188-.4923-.4482-.1747-.8636-.313-1.2442-.4117h-.0061c-.373-.1036-.7138-.177-1.0294-.2178h-.0061c-.3048-.0434-.5995-.0665-.8772-.0626h-.0061a5.65 5.65 0 0 0-.7579.0507c-.0107.0012-.0197.0046-.0298.006.0628-.1043.1195-.2012.191-.3192v-.003c.1237-.2099.2467-.4236.37-.6355l.003-.0062c.1233-.2233.2286-.4272.3133-.6176v-.003c.2155-.4685.3726-.9226.4714-1.3636.102-.4548.1302-.8951.0746-1.3187-.0498-.3884-.1957-.746-.4297-1.0443a2.2 2.2 0 0 0-.2208-.2387l-.003-.003c-.0872-.0893-.193-.175-.3133-.2567l-.003-.003c-.2491-.1718-.5179-.2911-.7997-.352h-.003a2.97 2.97 0 0 0-.8265-.0658h-.003c-.27.0155-.538.0651-.7997.1432-.257.0727-.5014.1566-.734.2566l-.003.003c-.2258.0984-.4367.1986-.6355.3103a11 11 0 0 0-.4983.2954 13 13 0 0 0-.6087.4088c-.1503.108-.2836.2023-.3998.2894v.003c-.1087.0824-.2068.1563-.2924.2238-.072.0569-.1536.1114-.2417.1671a2.06 2.06 0 0 1-.3282.17 4.2 4.2 0 0 1-.364.1284l-.0122.003a6 6 0 0 0-.376.1403 2.13 2.13 0 0 0-.3848.191h-.003c-.3124.1971-.543.4583-.5998.7847v.006c-.0249.1599.0532.3395.0895.5103-.0308.003-.062-.0138-.0925-.0092h-.0031c-.1496.0205-.2979.0678-.4655.1402h-.003c-.1772.0767-.377.1869-.6057.3312-.2328.1471-.4511.305-.6624.4655v-.003c-.213.16-.43.3371-.6504.534-.2176.188-.4404.3952-.6684.6206a28 28 0 0 0-.728.7489.3.3 0 0 0-.0178.021c-.0239.03-.079.091-.1582.17h-.003a10 10 0 0 1-.2715.2626c-.1009.0956-.1976.1909-.2924.2804-.0123.0107-.0182.0138-.0298.0238l-.0567-.0447a.33.33 0 0 0-.0538-.0358c-.1701-.0883-.3134-.0792-.4863-.0656h-.003c-.2268.0122-.4393.1026-.6595.2416-.164.1038-.2803.273-.3371.4535h.003c-.0485.1525-.074.3185-.0745.4983v.0061c-.003.1678.0092.3376.0328.5132l.0031.0092c.027.1614.0548.3222.0865.4774v.006c.0566.25.1219.4977.1969.743.0748.2454.1717.5263.2894.8504.1146.3201.2578.7.4267 1.1427v.003c.1687.4315.3709.9694.6116 1.6112.2383.6357.4601 1.2897.6624 1.9603.209.681.4551 1.357.737 2.029.0889.2166.2008.412.3341.5817.2533.3168.6064.5275.9936.5222.3726-.0061.7516-.1511 1.1457-.3998.3469-.2192.7072-.497 1.083-.8295.3797-.3358.7416-.716 1.0861-1.1368.135-.166.2875-.3552.4565-.5669l.003-.003c.168-.2186.3334-.446.5013-.6833l.0061-.003c.1652-.2431.3227-.49.4715-.734a6.05 6.05 0 0 0 .3819-.731c.1066-.2424.1784-.475.2118-.7012.0348-.2397.0076-.48-.1045-.6833-.0703-.1322-.2175-.2464-.373-.2774a.77.77 0 0 0-.3341-.0061 1.13 1.13 0 0 0-.2984.0925c-.0725.0317-.1439.0647-.2148.1105-.2487.164-.4576.36-.6206.5788-.1456.1908-.2837.4024-.4147.6325-.1238.2135-.2595.4425-.3999.6923-.1281.2282-.3001.481-.5191.7489a8.45 8.45 0 0 1-.746.7996c-.262.2482-.5031.438-.707.5669l-.0031.006c-.0061.0047-.0304.0187-.0477.0299-.0091-.0077-.0003-.0001-.0152-.0179v-.003c-.0138-.0187-.085-.1346-.1701-.3014l-.003-.0092a15 15 0 0 1-.2626-.5848 14 14 0 0 1-.2566-.6355l-.003-.003c-.0508-.1313-.0667-.1967-.0925-.2805.0712-.071.1528-.153.2029-.2029l.003-.003a7 7 0 0 0 .2328-.2447l.0091-.0092a5.5 5.5 0 0 0 .2119-.2685l.003-.006c.0758-.0982.1793-.2315.3103-.4059l.003-.006c.1269-.1775.2959-.406.5073-.6863v-.003c.2096-.2835.488-.651.8265-1.0951l.0091-.0122c.0546-.0648.1383-.1626.2596-.3044.127-.1481.2581-.3005.3939-.4594v-.003c.1442-.1657.2765-.3201.3938-.4626l.003-.006c.1184-.151.198-.2517.2537-.3372l.006-.0122c.1327-.2245.2233-.4542.2627-.6863.048-.2634-.0182-.5456-.182-.7578-.1018-.1334-.272-.2114-.4297-.2268-.238-.0295-.4159.065-.6057.185-.158.0998-.3185.253-.5251.4714l-.003.003-.0031.0031a24 24 0 0 0-.6952.746c-.2505.2822-.5114.5807-.7847.895-.2674.3108-.5243.6063-.7638.8802a43 43 0 0 1-.6206.7042c-.0312.0333-.0286.0252-.0567.0538-.0077-.0227-.0092-.0308-.0179-.0567-.0365-.1192-.0774-.2481-.1193-.3909-.0434-.1463-.09-.2998-.1372-.4595a21 21 0 0 0-.1372-.4505l-.003-.0092a16 16 0 0 1-.1045-.364l-.003-.0122c-.0318-.1057-.0488-.1781-.0538-.2059a.3.3 0 0 0-.003-.0209c-.0542-.2246-.0662-.4437-.0358-.6653.0278-.2026.1243-.4272.3103-.6744.0006-.0009-.0007-.0015 0-.003.0644-.0733.1523-.1675.2655-.2924l.0061-.0092c.1141-.1329.2355-.27.37-.4147l.003-.0061c.1388-.154.2827-.308.4238-.4655l.003-.003c.1425-.1563.2723-.2962.3938-.4207l.0092-.0092c.1212-.133.2245-.245.3073-.3312a.3.3 0 0 0 .0123-.0122c.0826-.0953.161-.1659.1252-.1372a.3.3 0 0 0 .0298-.0298c.0396-.041.1282-.1272.2656-.2476l.006-.003a17 17 0 0 1 .4476-.391l.0092-.0091a21 21 0 0 1 .4326-.3819l.0092-.0061c.141-.1276.2303-.214.2655-.2477l-.0328.027c.1762-.1313.321-.2624.4326-.4059.0517-.0661.082-.1394.1224-.2088.0412.0434.0842.084.1283.1402.0875.1115.1602.2206.2208.3312l.003.0061a4.4 4.4 0 0 1 .185.352c.0557.1217.1067.245.1582.373l.003.0031c.0549.1326.1126.2722.176.4177.4679 1.1117.9193 2.218 1.3517 3.3208.431 1.1027.8825 2.2143 1.3516 3.3298l.003.0122c.0312.0682.0698.1409.1134.2178.042.076.09.152.1462.2238.1488.19.3453.3316.5699.4117l.006.0031c.2813.0958.5831.0137.8415-.1493a.98.98 0 0 0 .3789-.4475c.0819-.1771.111-.3744.0926-.564a.33.33 0 0 0-.021-.0864 9 9 0 0 0-.1073-.2566l-.0062-.0178a18 18 0 0 0-.1462-.382l-.003-.0091a16 16 0 0 0-.179-.4714l-.003-.0092-.1761-.4774c-.0593-.158-.1172-.3022-.167-.4296l-.0032-.003c-.0513-.1255-.0869-.225-.1133-.2955l-.0061-.0091-.6206-1.4949c.1282.0092.2531.0486.382.0153a.33.33 0 0 0 .1342-.0716c.099-.0883.1984-.1802.2984-.2745l.006-.0061c.0806-.0792.1846-.1585.3163-.2417v-.003l.1074-.0686v.003c.2087-.1321.4522-.2254.74-.2805l.003-.003c.2932-.0591.6051-.0847.9369-.0776a5.33 5.33 0 0 1 1.0323.1312h.0031a8 8 0 0 1 1.0592.3073c.3168.1176.6041.2498.8653.3939l.006.003c.2844.1505.5457.2808.7878.3939v.003c.2538.1173.4932.1997.719.2447.268.0522.5471-.003.7758-.1462.147-.0929.2736-.215.364-.361l.0092-.0123c.05-.089.0661-.1908.0924-.2894.1653.0871.3477.1398.537.1372.3727-.0061.7517-.151 1.1458-.3998.3477-.2196.7049-.4975 1.08-.8295.3789-.335.7411-.7124 1.0861-1.1337.1349-.166.2875-.3552.4565-.567l.003-.003c.1678-.2183.3361-.4485.5043-.6862l.0061-.0031c.1645-.242.322-.486.4714-.731a6 6 0 0 0 .382-.731c.106-.242.178-.4754.2118-.7012.0348-.24.0076-.4811-.1045-.6862-.0703-.1321-.2175-.2464-.373-.2775a.79.79 0 0 0-.3371-.003h-.003a1.1 1.1 0 0 0-.2955.0895 1.55 1.55 0 0 0-.2118.1133c-.246.162-.4583.354-.6236.5759-.1456.1908-.2837.4023-.4147.6325q-.1885.3247-.3969.6952c-.1275.2272-.2994.4772-.5191.746a8.5 8.5 0 0 1-.7489.7995c-.263.249-.5013.4388-.7041.567l-.0031.006c.0015-.0014-.0284.018-.0477.0298-.0076-.006-.0015.0007-.0152-.0152v-.003c-.0153-.02-.0885-.1386-.173-.3044l-.0031-.0092a15 15 0 0 1-.2626-.5818v-.003c-.0944-.2177-.18-.429-.2566-.6326l-.003-.003c-.0508-.1313-.0668-.1967-.0926-.2805.0718-.0726.1542-.1574.2028-.2059l.0031-.003a7 7 0 0 0 .2327-.2417l.0092-.0092a5.7 5.7 0 0 0 .2118-.2685l.003-.0061c.0758-.0981.1794-.2315.3104-.4058l.003-.0061c.1264-.1769.2986-.4087.5103-.6893v-.003c.2101-.2841.4865-.6497.8234-1.092.054-.0642.1427-.1722.2686-.3193.1254-.1462.2595-.2988.3968-.4595v-.003c.1428-.1641.2751-.3153.3938-.4595l.0031-.0061c.12-.1531.1992-.258.2506-.3372l.0061-.0122c.1332-.2254.223-.458.2626-.6892.0481-.2635-.018-.5457-.182-.7579-.1051-.1376-.279-.209-.4296-.2237-.2321-.0288-.411.061-.6028.182-.1584.0996-.3208.2523-.528.4714l-.0031.003-.003.003a24 24 0 0 0-.6953.746c-.2504.2822-.5113.5807-.7847.8951a149 149 0 0 1-.7638.8802 43 43 0 0 1-.6206.7041c-.0313.0335-.0283.025-.0567.0538-.0076-.0212-.0091-.0292-.0178-.0538-.036-.1177-.077-.2499-.1193-.3938-.0434-.1464-.09-.2998-.1372-.4595a26 26 0 0 0-.1374-.4476l-.003-.006a15 15 0 0 1-.1045-.37l-.003-.0092c-.032-.1066-.049-.1816-.0538-.2089a.3.3 0 0 0-.003-.0209c-.0542-.2246-.0662-.4437-.0358-.6654.0275-.2001.1264-.426.3132-.6743.0007-.0009-.0006-.0015 0-.003a25 25 0 0 1 .2626-.2924l.0061-.0092c.1123-.1307.237-.2683.373-.4147l.003-.0061c.1403-.1556.2812-.3097.4207-.4655l.003-.003c.1426-.1563.2723-.2962.394-.4207l.0091-.0092c.1211-.133.2245-.245.3073-.3312a.3.3 0 0 0 .0122-.0122c.0818-.0944.1595-.164.1253-.1373a.3.3 0 0 0 .0328-.0298c.0404-.0417.129-.128.2656-.2477l.0061-.003c.14-.1273.2864-.257.4446-.3909l.0091-.0091c.1548-.1403.2977-.2664.4327-.382l.0091-.006c.1374-.1243.22-.1983.2686-.2447l-.0329.0269c.1783-.1328.3228-.2676.4326-.4088.0995-.1276.1781-.2549.2268-.3938.0478-.1348.0668-.2787.0388-.4207-.0177-.1163-.0568-.2338-.1343-.3342l-.003-.003c-.0776-.099-.1872-.1726-.3044-.2149-.148-.0619-.2965-.0597-.4326-.0357zm-37.245 1.6112c-1.739-.1732-3.9478 4.5398-3.5625 2.9658a9.4 9.4 0 0 0-.367 1.6082v.003a16.4 16.4 0 0 0-.1312 1.65c-.0138.5327-.0092 1.0428.0178 1.5306.0256.4818.0575.9002.0984 1.2591.0298.4036.0744.8032.1313 1.1965.0598.3948.1399.7767.2386 1.1457v.003c.1013.3656.2269.7173.376 1.0503.1488.335.3323.6405.546.913.0898.1142.1952.2271.3192.3431.1287.1225.2701.2294.4237.3163a.3.3 0 0 0 .0153.0091c.162.0815.3317.1342.5012.1582h.0153c.2116.0188.4288-.0394.6117-.1552.1197-.0757.2146-.181.2864-.2954.0692-.1017.1256-.2152.1581-.3401v-.003a1.26 1.26 0 0 0 .0417-.3491l-.003-.0092c-.0061-.128-.036-.2536-.0926-.367v-.003c-.0435-.0851-.1046-.1878-.182-.3133-.0727-.118-.148-.2453-.2297-.376v-.003c-.082-.1297-.1627-.2496-.2357-.367l-.0061-.0123c-.0654-.1164-.1137-.2132-.1372-.2744v-.003a10 10 0 0 1-.182-.5103v-.003a7.6 7.6 0 0 1-.1701-.567v-.003a5.5 5.5 0 0 1-.1224-.5788v-.003c-.0163-.0998-.02-.1911-.0298-.2865h.0062a.3.3 0 0 0 .0178-.003c.159-.0153.3188-.0653.4565-.1522a4.55 4.55 0 0 0 .8742-.7161c.2307-.243.4678-.48.7072-.7101.1651-.1591.3212-.3074.4684-.4506l.0061-.006c.1416-.1438.2784-.2807.4088-.4058l.006-.0061c.1296-.131.2582-.251.388-.367l.003-.003a5.2 5.2 0 0 1 .3969-.3283v-.003c.0647-.0494.1228-.0945.182-.1403.0106.025.0221.0497.0328.0746l.003.0091c.0682.1487.1313.2938.188.4356l.003.0031c.0592.1425.1143.2752.1701.3998.0529.1189.0966.2233.1343.3103v-.0061c.0246.0587.0608.1629.1014.3013.0411.1387.0812.292.1193.4625.0404.1793.0835.3676.1284.561.0453.1951.0918.3801.1372.5579l.003.0092c.0507.1764.1033.3379.1552.4803.0522.1483.1054.2694.191.379v.003c.0752.096.1648.181.2684.2536a.3.3 0 0 0 .0153.0092c.1095.069.2278.1202.352.1521l.0154.003c.134.0274.2719.0296.4087.0093.1076-.0164.2098-.0671.3103-.1164a.33.33 0 0 0 .1253-.0448c.1983-.1253.3572-.2724.4565-.4625l.006-.0122c.0785-.1635.121-.3403.1194-.5192v-.0091c-.0061-.169-.0419-.3365-.1014-.5013v-.003a20 20 0 0 0-.1432-.376 4.4 4.4 0 0 0-.0686-.2864v-.003a8 8 0 0 0-.1133-.4208l-.003-.006a16 16 0 0 0-.1313-.4506v-.0061a9 9 0 0 0-.1312-.4237l-.003-.0061c-.0407-.1315-.0774-.2426-.1134-.3372a7 7 0 0 1-.0538-.164.3.3 0 0 0-.0153-.0389l-.4087-.9995-.0031-.0092a60 60 0 0 0-.364-.8205l-.003-.003a16 16 0 0 0-.4476-.9428l-.003-.0031a13 13 0 0 0-.5312-.9667l-.003-.0061a8.2 8.2 0 0 0-.6266-.925 5.74 5.74 0 0 0-.8444-.8712c-.3089-.2638-.6449-.4655-1.0084-.5907a2.5 2.5 0 0 0-.573-.1224zm-.3163 2.2378c.8297.254 2.0879 2.5008 1.656 1.82-.1102.1028-.2084.1949-.373.349-.2423.2197-.51.4574-.8086.7132-.294.2524-.5999.5022-.913.7489-.3095.2438-.5929.4447-.8474.6057l-.3043.1939c-.0003-.0092.0003-.0214 0-.0298v-.003a3 3 0 0 1 0-.1253v-.003c.0077-.2233.0165-.4678.0329-.734v-.0031c.0137-.2628.0403-.5325.0745-.8056v-.003c.0387-.2743.087-.5482.1462-.8235v-.003a4.4 4.4 0 0 1 .2417-.749c.0987-.2319.214-.4393.349-.6236l.0031-.003c.1294-.1811.282-.3267.4595-.4386h.003c.1276-.081.2096-.0954.2805-.0836zm-7.8739 1.3307c-.1387.0302-.274.0901-.4058.173-.1329.0839-.2458.2126-.3162.361-.0006.0014-.003.0016-.003.0031a1.3 1.3 0 0 0-.1253.4028v.003c-.02.1407-.0153.2808.006.4207.0198.1319.0485.2612.0984.385.1082.2678.2232.5236.3432.7697l.003.0061q.1798.3531.367.7012h.003c.1235.2291.2438.459.367.6892.1209.2244.2417.4608.3581.7071.1188.2563.2394.5514.361.8832v.003q.1837.4848.3491 1.0444v.003c.1118.3651.2148.7415.3043 1.1308l.003.003c.0943.3862.17.7685.2298 1.1458v.0061c.0639.372.1065.7277.1284 1.0711v.0031c.0262.3382.0285.6445.0091.916-.0226.2619-.07.4797-.1372.6534-.0623.1575-.1364.2399-.2148.2894l-.003.003c-.0184.0123-.038.0184-.0984.0093-.093-.0216-.1989-.0622-.3223-.1284a4.7 4.7 0 0 1-.3908-.2536l-.0061-.006c-.0016-.0015-.0046-.0016-.0061-.0031a6.6 6.6 0 0 1-.382-.3253c-.1266-.1167-.2378-.2214-.3311-.3162v-.003c-.0013-.0014-.0046-.0016-.0062-.0031-.09-.0969-.1576-.1753-.191-.2178a25 25 0 0 1-.3281-.4297l-.003-.0061a6.3 6.3 0 0 1-.2835-.4296l-.003-.0062a9.7 9.7 0 0 1-.2716-.5161v-.003a9.4 9.4 0 0 1-.2864-.6386l-.003-.003c-.0645-.1564-.123-.3314-.1791-.5222l-.003-.006a21 21 0 0 0-.2-.6833l-.0983-.3163-.0031-.003a3 3 0 0 0-.0597-.1642l-.003-.006a.86.86 0 0 0-.1046-.182l-.003-.0031c-.171-.2205-.441-.3523-.7191-.37a1.243 1.243 0 0 0-.7787.188c-.1198.0753-.221.1591-.3014.2715-.1144.1533-.1288.3423-.1014.4982a.3.3 0 0 0 .0091.0358c.1602.539.2872 1.1111.379 1.7156.092.6075.154 1.2194.185 1.829.0308.6102.0316 1.196.003 1.7633l-.003.003c-.0243.564-.0764 1.0759-.1582 1.5307-.0819.4565-.186.8347-.3073 1.1368-.1202.2855-.2548.4445-.349.5042-.0445.0283-.062.03-.0777.0298-.0304-.0004-.0603-.0046-.1074-.0298h-.003c-.056-.0289-.112-.0698-.1731-.1283a2.4 2.4 0 0 1-.2148-.2387 3.6 3.6 0 0 1-.2865-.4267v-.003a17 17 0 0 1-.2506-.4565l-.003-.0061c-.0016-.003-.0046-.0077-.0061-.0122-.0651-.144-.119-.2749-.1641-.382-.0505-.1193-.088-.2075-.0896-.2118l-.003-.0092a14.4 14.4 0 0 1-.4595-1.3187 32 32 0 0 1-.3879-1.4173l.003.003a372 372 0 0 1-.355-1.5126 62 62 0 0 0-.3878-1.5754.3.3 0 0 0-.0153-.0477c-.1047-.242-.2252-.4526-.364-.6295-.1232-.1565-.2612-.2835-.4177-.379-.0008-.0005-.0016.0006-.0031 0-.1486-.0976-.3106-.1647-.4804-.188a1.12 1.12 0 0 0-.4863.018 1.43 1.43 0 0 0-.4177.179 1.004 1.004 0 0 0-.379.4326l-.003.0061c-.0784.1838-.0898.3864-.0538.5788a.33.33 0 0 0 .027.0805q.0829.1734.152.3282c.044.0967.0911.2114.1403.3372l.003.0061c.2098.5074.3962 1.0317.558 1.5754.1609.5484.3126 1.0927.4595 1.632.1477.5432.2985 1.0704.4475 1.5874v.003c.1562.5234.33 1.0139.5252 1.468a.33.33 0 0 0 .0447.0745c.1396.3201.2914.6343.4565.94.1824.3372.387.6504.6117.9368.196.2496.4058.4704.6325.6594l.003.003c.2378.1909.4962.3347.7669.4237.2787.0912.5714.1152.8652.0746.3144-.0417.6292-.1678.9399-.364.2859-.1806.5258-.4312.713-.737l.0031-.0061c.1793-.285.3261-.5992.4386-.937l.003-.006a6.8 6.8 0 0 0 .2746-1.0145v-.003c.0596-.3367.1098-.647.1492-.928.0523-.3819.0833-.7812.0925-1.1964v-.0061c.006-.1832.006-.412.0091-.6146.1627.1587.3184.3312.4864.4803l.003.003c.3695.3197.7458.5852 1.1278.7908h.0062c.3921.2025.7873.3232 1.1845.358h.0091c.4216.0281.8393-.0839 1.2174-.3222.1934-.122.3605-.2879.4982-.4804a3.32 3.32 0 0 0 .361-.5908v-.003a3.8 3.8 0 0 0 .2477-.6504c.0593-.2142.0998-.4143.1224-.6057v-.003c.0681-.52.0814-1.0915.0476-1.7187a16.1 16.1 0 0 0-.2058-1.9334 19.2 19.2 0 0 0-.4297-1.9722c-.1818-.6561-.3948-1.2677-.6355-1.835v-.003a32 32 0 0 0-.379-.8683 22 22 0 0 0-.4296-.889v-.0031c-.1455-.2946-.291-.5687-.4415-.8265l-.0031-.003c-.148-.263-.2956-.4904-.4446-.6803-.2026-.2582-.3977-.4472-.6564-.5341-.001-.0004-.0015.0003-.003 0-.1442-.0498-.2948-.0498-.4297-.021zm35.9114 3.0493c2.3212.683-7.974 12.4232-2.193 5.3139-.0895-.2406-.18-.4873-.2745-.743v-.003c-.105-.2786-.2093-.5532-.3103-.8265-.1017-.2748-.1983-.5337-.2864-.7727-.0879-.237-.1665-.4459-.2357-.6326l-.0031-.0092c-.0347-.1038-.0564-.166-.0836-.2446.2146-.2522.4353-.492.6863-.6952.3029-.2453.6224-.4704.9548-.6803a8.4 8.4 0 0 1 .6116-.352l.0061-.0031q.3268-.1814.6236-.2775c.1894-.061.3561-.0833.5042-.0745zm-5.9882 1.8677c.0107.0046.021.0107.0153.0092-.0061-.0015-.0092-.0076-.0153-.0092m.4565.549c.0015.0077.0015.0138 0 .0092-.0006-.003.0006-.0061 0-.0092m-9.4702 4.4576c-.3115.4898-.7832 2.0106-.907.8772-.0278.235.003.4785.0805.731.0735.241.1743.4922.2984.7549l.003.0061c.1175.2376.2229.4732.3193.7101l.182.5102c.1306.3762.2559.716.379 1.0204.1156.2899.209.5465.2863.7698l.0031.0061c.0782.2107.1272.3829.1462.5072.0156.1038.0002.1307-.003.1372a356 356 0 0 0-1.9186 1.8708 685 685 0 0 1-1.9543 1.8946l-.006.0061-.2537.191-1.8021-4.9051-.003-.0092c-.0178-.0443-.0432-.0924-.0687-.1462l-.0122-.0298a2.2 2.2 0 0 0-.0985-.2267l-.003-.0031a7 7 0 0 0-.1313-.2357c-.0509-.0944-.1062-.1864-.173-.2715-.0781-.0996-.166-.1794-.2567-.2477-.093-.0786-.2035-.145-.3282-.182-.1414-.0452-.2842-.0482-.4177-.0269-.1486.0202-.2936.0749-.4296.1612l-.003.003-.1194.0776a.76.76 0 0 0-.2148.2059.61.61 0 0 0-.1014.2118c-.018.0593-.0346.1276-.0358.203a.33.33 0 0 0 .021.1163l3.5505 10.034c.018.0513.0405.121.0717.212l.006.0121q.0541.1408.1165.2895c.04.0962.0803.1903.1223.2834a.3.3 0 0 0 .0092.021c.0483.0898.0935.167.1522.2416a.33.33 0 0 0 .0597.0567c.0585.0678.1156.1349.179.194a.3.3 0 0 0 .0122.0122 1.23 1.23 0 0 0 .352.2088c.1348.055.277.0831.4178.0776h.003c.1644-.0076.3284-.0625.4744-.1551.1033-.0654.1869-.1629.2477-.2686a1.16 1.16 0 0 0 .1312-.3073c.0003-.001.003-.0015.003-.003a1.2 1.2 0 0 0 .0508-.3073v-.003c.0076-.1156.0012-.2338-.0477-.3522v-.003c-.0811-.1926-.1674-.398-.2596-.6147l-.003-.006a18 18 0 0 1-.2477-.6595 12.6 12.6 0 0 1-.2267-.6832v-.003c-.0495-.1753-.0825-.3375-.1134-.4984l1.459-1.5515c.2145-.2282.4265-.4572.6385-.6832.2172-.2294.421-.4423.6087-.6415.1862-.1976.3514-.3723.4953-.5251.1436-.1528.2472-.2655.3222-.3491l.0062-.0061c.0013-.0015.0045-.0046.006-.0061.1578-.1574.2961-.2897.4118-.3909l.0061-.003c.0283-.0257.0556-.0393.0836-.0627.2048.427.4082.8503.5937 1.2203v.003c.104.2045.207.4052.3074.6057.1.2033.197.395.2923.57.092.1689.175.3202.2447.4475a.3.3 0 0 0 .0092.0153c.0767.1242.134.2083.188.2774v.003c.0543.0694.1185.1307.1939.197l.003.0061c.0908.077.1936.1403.3074.191a.3.3 0 0 0 .0178.0091c.1313.0494.2726.0712.4118.0717.1808.0006.3542-.0616.5072-.1581a1.32 1.32 0 0 0 .2894-.2507l.003-.003c.0855-.1013.1513-.2139.203-.3312.0597-.1279.0977-.261.1104-.3968v-.003a.96.96 0 0 0-.0686-.4596v-.003a8.4 8.4 0 0 0-.3819-.7788 25 25 0 0 0-.4117-.7459l-.003-.0061a49 49 0 0 1-.3969-.734l-.003-.003c-.126-.248-.2456-.5006-.3521-.758v-.003l-.1522-.37.0061.0062a2.5 2.5 0 0 0-.1252-.2745l-.0062-.0123c-.0137-.028-.017-.0406-.0268-.0626.0734-.2121.1413-.4205.158-.6116v-.003c.024-.2853-.0804-.5679-.2625-.7997a1.34 1.34 0 0 0-.2804-.2685l-.0031-.0031a.7.7 0 0 1-.1402-.1343c-.0295-.0376-.0842-.1323-.1403-.2685a6.8 6.8 0 0 1-.182-.4893 27 27 0 0 1-.182-.6027 20 20 0 0 0-.191-.6296v-.003c-.1716-.5353-.3204-.9893-.4475-1.3606-.1266-.3874-.2323-.6548-.3879-.8533-.199-.2542-.4747-.4273-.7847-.4893a1.2 1.2 0 0 0-.4923 0z"/></svg>